<mxfile host="app.diagrams.net" agent="Mozilla/5.0 (Windows NT 10.0; Win64; x64) AppleWebKit/537.36 (KHTML, like Gecko) Chrome/133.0.0.0 Safari/537.36" version="26.0.16">
  <diagram name="Page-1" id="aV1SA9MMD2-bTEqijvaf">
    <mxGraphModel dx="5250" dy="3954" grid="1" gridSize="10" guides="1" tooltips="1" connect="1" arrows="1" fold="1" page="1" pageScale="1" pageWidth="827" pageHeight="1169" math="0" shadow="0">
      <root>
        <mxCell id="0" />
        <mxCell id="1" parent="0" />
        <mxCell id="Bbd-Y3SnXmLpEQH7ZLkI-1" value="" style="endArrow=none;html=1;rounded=0;" edge="1" parent="1">
          <mxGeometry width="50" height="50" relative="1" as="geometry">
            <mxPoint x="60" y="710" as="sourcePoint" />
            <mxPoint x="110" y="710" as="targetPoint" />
          </mxGeometry>
        </mxCell>
        <mxCell id="Bbd-Y3SnXmLpEQH7ZLkI-37" value="num[3]" style="edgeLabel;html=1;align=center;verticalAlign=middle;resizable=0;points=[];" vertex="1" connectable="0" parent="Bbd-Y3SnXmLpEQH7ZLkI-1">
          <mxGeometry x="-0.3169" y="3" relative="1" as="geometry">
            <mxPoint x="3" y="-7" as="offset" />
          </mxGeometry>
        </mxCell>
        <mxCell id="Bbd-Y3SnXmLpEQH7ZLkI-141" style="edgeStyle=orthogonalEdgeStyle;rounded=0;orthogonalLoop=1;jettySize=auto;html=1;exitX=1;exitY=0.5;exitDx=0;exitDy=0;exitPerimeter=0;entryX=0.175;entryY=0.25;entryDx=0;entryDy=0;entryPerimeter=0;" edge="1" parent="1" target="Bbd-Y3SnXmLpEQH7ZLkI-63">
          <mxGeometry relative="1" as="geometry">
            <mxPoint x="350.005" y="-230" as="targetPoint" />
            <mxPoint x="254.3800000000001" y="-340" as="sourcePoint" />
            <Array as="points">
              <mxPoint x="254" y="-339" />
              <mxPoint x="290" y="-339" />
              <mxPoint x="290" y="-230" />
            </Array>
          </mxGeometry>
        </mxCell>
        <mxCell id="Bbd-Y3SnXmLpEQH7ZLkI-7" value="" style="shape=or;whiteSpace=wrap;html=1;" vertex="1" parent="1">
          <mxGeometry x="220" y="-380" width="40" height="80" as="geometry" />
        </mxCell>
        <mxCell id="Bbd-Y3SnXmLpEQH7ZLkI-38" value="" style="endArrow=none;html=1;rounded=0;" edge="1" parent="1">
          <mxGeometry width="50" height="50" relative="1" as="geometry">
            <mxPoint x="60" y="740" as="sourcePoint" />
            <mxPoint x="120" y="740" as="targetPoint" />
          </mxGeometry>
        </mxCell>
        <mxCell id="Bbd-Y3SnXmLpEQH7ZLkI-39" value="num[2]" style="edgeLabel;html=1;align=center;verticalAlign=middle;resizable=0;points=[];" vertex="1" connectable="0" parent="Bbd-Y3SnXmLpEQH7ZLkI-38">
          <mxGeometry x="-0.3169" y="3" relative="1" as="geometry">
            <mxPoint x="-1" y="-7" as="offset" />
          </mxGeometry>
        </mxCell>
        <mxCell id="Bbd-Y3SnXmLpEQH7ZLkI-47" value="" style="endArrow=none;html=1;rounded=0;" edge="1" parent="1">
          <mxGeometry width="50" height="50" relative="1" as="geometry">
            <mxPoint x="60" y="770" as="sourcePoint" />
            <mxPoint x="130" y="770" as="targetPoint" />
          </mxGeometry>
        </mxCell>
        <mxCell id="Bbd-Y3SnXmLpEQH7ZLkI-48" value="num[1]" style="edgeLabel;html=1;align=center;verticalAlign=middle;resizable=0;points=[];" vertex="1" connectable="0" parent="Bbd-Y3SnXmLpEQH7ZLkI-47">
          <mxGeometry x="-0.3169" y="3" relative="1" as="geometry">
            <mxPoint x="-4" y="-7" as="offset" />
          </mxGeometry>
        </mxCell>
        <mxCell id="Bbd-Y3SnXmLpEQH7ZLkI-49" value="" style="endArrow=none;html=1;rounded=0;" edge="1" parent="1">
          <mxGeometry width="50" height="50" relative="1" as="geometry">
            <mxPoint x="60" y="800" as="sourcePoint" />
            <mxPoint x="140" y="800" as="targetPoint" />
          </mxGeometry>
        </mxCell>
        <mxCell id="Bbd-Y3SnXmLpEQH7ZLkI-50" value="num[0]" style="edgeLabel;html=1;align=center;verticalAlign=middle;resizable=0;points=[];" vertex="1" connectable="0" parent="Bbd-Y3SnXmLpEQH7ZLkI-49">
          <mxGeometry x="-0.3169" y="3" relative="1" as="geometry">
            <mxPoint x="-8" y="-7" as="offset" />
          </mxGeometry>
        </mxCell>
        <mxCell id="Bbd-Y3SnXmLpEQH7ZLkI-51" value="" style="endArrow=none;html=1;rounded=0;" edge="1" parent="1">
          <mxGeometry width="50" height="50" relative="1" as="geometry">
            <mxPoint x="110" y="1970" as="sourcePoint" />
            <mxPoint x="110" y="-371.64100060096155" as="targetPoint" />
          </mxGeometry>
        </mxCell>
        <mxCell id="Bbd-Y3SnXmLpEQH7ZLkI-57" value="" style="endArrow=none;html=1;rounded=0;" edge="1" parent="1">
          <mxGeometry width="50" height="50" relative="1" as="geometry">
            <mxPoint x="120" y="1990" as="sourcePoint" />
            <mxPoint x="120" y="-350" as="targetPoint" />
          </mxGeometry>
        </mxCell>
        <mxCell id="Bbd-Y3SnXmLpEQH7ZLkI-58" value="" style="endArrow=none;html=1;rounded=0;" edge="1" parent="1">
          <mxGeometry width="50" height="50" relative="1" as="geometry">
            <mxPoint x="130" y="2010" as="sourcePoint" />
            <mxPoint x="130" y="-330" as="targetPoint" />
          </mxGeometry>
        </mxCell>
        <mxCell id="Bbd-Y3SnXmLpEQH7ZLkI-60" value="" style="endArrow=none;html=1;rounded=0;" edge="1" parent="1">
          <mxGeometry width="50" height="50" relative="1" as="geometry">
            <mxPoint x="140" y="1930" as="sourcePoint" />
            <mxPoint x="140" y="-310" as="targetPoint" />
          </mxGeometry>
        </mxCell>
        <mxCell id="Bbd-Y3SnXmLpEQH7ZLkI-479" style="edgeStyle=orthogonalEdgeStyle;rounded=0;orthogonalLoop=1;jettySize=auto;html=1;exitX=1;exitY=0.5;exitDx=0;exitDy=0;exitPerimeter=0;entryX=0.5;entryY=1;entryDx=0;entryDy=0;" edge="1" parent="1" source="Bbd-Y3SnXmLpEQH7ZLkI-63" target="Bbd-Y3SnXmLpEQH7ZLkI-474">
          <mxGeometry relative="1" as="geometry" />
        </mxCell>
        <mxCell id="Bbd-Y3SnXmLpEQH7ZLkI-63" value="" style="shape=xor;whiteSpace=wrap;html=1;" vertex="1" parent="1">
          <mxGeometry x="342.5" y="-260" width="75" height="120" as="geometry" />
        </mxCell>
        <mxCell id="Bbd-Y3SnXmLpEQH7ZLkI-77" value="" style="verticalLabelPosition=bottom;shadow=0;dashed=0;align=center;html=1;verticalAlign=top;shape=mxgraph.electrical.logic_gates.inverter_2" vertex="1" parent="1">
          <mxGeometry x="780" y="1170" width="20" height="20" as="geometry" />
        </mxCell>
        <mxCell id="Bbd-Y3SnXmLpEQH7ZLkI-78" value="" style="verticalLabelPosition=bottom;shadow=0;dashed=0;align=center;html=1;verticalAlign=top;shape=mxgraph.electrical.logic_gates.inverter_2" vertex="1" parent="1">
          <mxGeometry x="780" y="1410" width="20" height="20" as="geometry" />
        </mxCell>
        <mxCell id="Bbd-Y3SnXmLpEQH7ZLkI-79" value="" style="verticalLabelPosition=bottom;shadow=0;dashed=0;align=center;html=1;verticalAlign=top;shape=mxgraph.electrical.logic_gates.inverter_2" vertex="1" parent="1">
          <mxGeometry x="770" y="325" width="20" height="20" as="geometry" />
        </mxCell>
        <mxCell id="Bbd-Y3SnXmLpEQH7ZLkI-96" value="" style="verticalLabelPosition=bottom;shadow=0;dashed=0;align=center;html=1;verticalAlign=top;shape=mxgraph.electrical.logic_gates.inverter_2" vertex="1" parent="1">
          <mxGeometry x="200" y="-380" width="20" height="20" as="geometry" />
        </mxCell>
        <mxCell id="Bbd-Y3SnXmLpEQH7ZLkI-97" value="" style="verticalLabelPosition=bottom;shadow=0;dashed=0;align=center;html=1;verticalAlign=top;shape=mxgraph.electrical.logic_gates.inverter_2" vertex="1" parent="1">
          <mxGeometry x="200" y="-340" width="20" height="20" as="geometry" />
        </mxCell>
        <mxCell id="Bbd-Y3SnXmLpEQH7ZLkI-98" value="" style="verticalLabelPosition=bottom;shadow=0;dashed=0;align=center;html=1;verticalAlign=top;shape=mxgraph.electrical.logic_gates.inverter_2" vertex="1" parent="1">
          <mxGeometry x="200" y="-360" width="20" height="20" as="geometry" />
        </mxCell>
        <mxCell id="Bbd-Y3SnXmLpEQH7ZLkI-99" value="" style="endArrow=none;html=1;rounded=0;" edge="1" parent="1">
          <mxGeometry width="50" height="50" relative="1" as="geometry">
            <mxPoint x="110" y="-370" as="sourcePoint" />
            <mxPoint x="200" y="-370" as="targetPoint" />
          </mxGeometry>
        </mxCell>
        <mxCell id="Bbd-Y3SnXmLpEQH7ZLkI-100" value="" style="endArrow=none;html=1;rounded=0;" edge="1" parent="1">
          <mxGeometry width="50" height="50" relative="1" as="geometry">
            <mxPoint x="120" y="-350.26" as="sourcePoint" />
            <mxPoint x="200" y="-350" as="targetPoint" />
          </mxGeometry>
        </mxCell>
        <mxCell id="Bbd-Y3SnXmLpEQH7ZLkI-101" value="" style="endArrow=none;html=1;rounded=0;" edge="1" parent="1">
          <mxGeometry width="50" height="50" relative="1" as="geometry">
            <mxPoint x="130" y="-330.26" as="sourcePoint" />
            <mxPoint x="200" y="-330" as="targetPoint" />
          </mxGeometry>
        </mxCell>
        <mxCell id="Bbd-Y3SnXmLpEQH7ZLkI-102" value="" style="shape=or;whiteSpace=wrap;html=1;" vertex="1" parent="1">
          <mxGeometry x="220" y="-110" width="40" height="80" as="geometry" />
        </mxCell>
        <mxCell id="Bbd-Y3SnXmLpEQH7ZLkI-103" value="" style="verticalLabelPosition=bottom;shadow=0;dashed=0;align=center;html=1;verticalAlign=top;shape=mxgraph.electrical.logic_gates.inverter_2" vertex="1" parent="1">
          <mxGeometry x="200" y="-90" width="20" height="20" as="geometry" />
        </mxCell>
        <mxCell id="Bbd-Y3SnXmLpEQH7ZLkI-106" value="" style="endArrow=none;html=1;rounded=0;entryX=0;entryY=0.875;entryDx=0;entryDy=0;entryPerimeter=0;" edge="1" parent="1" target="Bbd-Y3SnXmLpEQH7ZLkI-7">
          <mxGeometry width="50" height="50" relative="1" as="geometry">
            <mxPoint x="140" y="-310.26" as="sourcePoint" />
            <mxPoint x="200" y="-310" as="targetPoint" />
          </mxGeometry>
        </mxCell>
        <mxCell id="Bbd-Y3SnXmLpEQH7ZLkI-111" value="" style="shape=or;whiteSpace=wrap;html=1;" vertex="1" parent="1">
          <mxGeometry x="220" y="-200" width="40" height="80" as="geometry" />
        </mxCell>
        <mxCell id="Bbd-Y3SnXmLpEQH7ZLkI-113" value="" style="verticalLabelPosition=bottom;shadow=0;dashed=0;align=center;html=1;verticalAlign=top;shape=mxgraph.electrical.logic_gates.inverter_2" vertex="1" parent="1">
          <mxGeometry x="200" y="-160" width="20" height="20" as="geometry" />
        </mxCell>
        <mxCell id="Bbd-Y3SnXmLpEQH7ZLkI-142" style="edgeStyle=orthogonalEdgeStyle;rounded=0;orthogonalLoop=1;jettySize=auto;html=1;exitX=1;exitY=0.5;exitDx=0;exitDy=0;exitPerimeter=0;entryX=0.233;entryY=0.417;entryDx=0;entryDy=0;entryPerimeter=0;" edge="1" parent="1" source="Bbd-Y3SnXmLpEQH7ZLkI-115" target="Bbd-Y3SnXmLpEQH7ZLkI-63">
          <mxGeometry relative="1" as="geometry">
            <mxPoint x="280" y="-210" as="targetPoint" />
            <Array as="points">
              <mxPoint x="280" y="-250" />
              <mxPoint x="280" y="-210" />
            </Array>
          </mxGeometry>
        </mxCell>
        <mxCell id="Bbd-Y3SnXmLpEQH7ZLkI-115" value="" style="shape=or;whiteSpace=wrap;html=1;" vertex="1" parent="1">
          <mxGeometry x="220" y="-290" width="40" height="80" as="geometry" />
        </mxCell>
        <mxCell id="Bbd-Y3SnXmLpEQH7ZLkI-117" value="" style="verticalLabelPosition=bottom;shadow=0;dashed=0;align=center;html=1;verticalAlign=top;shape=mxgraph.electrical.logic_gates.inverter_2" vertex="1" parent="1">
          <mxGeometry x="200" y="-250" width="20" height="20" as="geometry" />
        </mxCell>
        <mxCell id="Bbd-Y3SnXmLpEQH7ZLkI-118" value="" style="verticalLabelPosition=bottom;shadow=0;dashed=0;align=center;html=1;verticalAlign=top;shape=mxgraph.electrical.logic_gates.inverter_2" vertex="1" parent="1">
          <mxGeometry x="200" y="-230" width="20" height="20" as="geometry" />
        </mxCell>
        <mxCell id="Bbd-Y3SnXmLpEQH7ZLkI-119" value="" style="endArrow=none;html=1;rounded=0;entryX=0;entryY=0.375;entryDx=0;entryDy=0;entryPerimeter=0;" edge="1" parent="1" target="Bbd-Y3SnXmLpEQH7ZLkI-115">
          <mxGeometry width="50" height="50" relative="1" as="geometry">
            <mxPoint x="120" y="-260" as="sourcePoint" />
            <mxPoint x="200" y="-260" as="targetPoint" />
          </mxGeometry>
        </mxCell>
        <mxCell id="Bbd-Y3SnXmLpEQH7ZLkI-120" value="" style="endArrow=none;html=1;rounded=0;entryX=0;entryY=0.5;entryDx=0;entryDy=0;entryPerimeter=0;" edge="1" parent="1" target="Bbd-Y3SnXmLpEQH7ZLkI-117">
          <mxGeometry width="50" height="50" relative="1" as="geometry">
            <mxPoint x="130" y="-240" as="sourcePoint" />
            <mxPoint x="200" y="-240.29" as="targetPoint" />
          </mxGeometry>
        </mxCell>
        <mxCell id="Bbd-Y3SnXmLpEQH7ZLkI-121" value="" style="endArrow=none;html=1;rounded=0;" edge="1" parent="1">
          <mxGeometry width="50" height="50" relative="1" as="geometry">
            <mxPoint x="140" y="-220" as="sourcePoint" />
            <mxPoint x="200" y="-220" as="targetPoint" />
          </mxGeometry>
        </mxCell>
        <mxCell id="Bbd-Y3SnXmLpEQH7ZLkI-129" value="" style="verticalLabelPosition=bottom;shadow=0;dashed=0;align=center;html=1;verticalAlign=top;shape=mxgraph.electrical.logic_gates.inverter_2" vertex="1" parent="1">
          <mxGeometry x="200" y="-290" width="20" height="20" as="geometry" />
        </mxCell>
        <mxCell id="Bbd-Y3SnXmLpEQH7ZLkI-131" value="" style="endArrow=none;html=1;rounded=0;" edge="1" parent="1">
          <mxGeometry width="50" height="50" relative="1" as="geometry">
            <mxPoint x="110" y="-280.59" as="sourcePoint" />
            <mxPoint x="200" y="-280" as="targetPoint" />
          </mxGeometry>
        </mxCell>
        <mxCell id="Bbd-Y3SnXmLpEQH7ZLkI-132" value="" style="endArrow=none;html=1;rounded=0;entryX=-0.01;entryY=0.112;entryDx=0;entryDy=0;entryPerimeter=0;" edge="1" parent="1" target="Bbd-Y3SnXmLpEQH7ZLkI-111">
          <mxGeometry width="50" height="50" relative="1" as="geometry">
            <mxPoint x="110" y="-190" as="sourcePoint" />
            <mxPoint x="210" y="-200" as="targetPoint" />
          </mxGeometry>
        </mxCell>
        <mxCell id="Bbd-Y3SnXmLpEQH7ZLkI-133" value="" style="endArrow=none;html=1;rounded=0;entryX=-0.002;entryY=0.868;entryDx=0;entryDy=0;entryPerimeter=0;" edge="1" parent="1" target="Bbd-Y3SnXmLpEQH7ZLkI-111">
          <mxGeometry width="50" height="50" relative="1" as="geometry">
            <mxPoint x="140" y="-130" as="sourcePoint" />
            <mxPoint x="190" y="-160" as="targetPoint" />
          </mxGeometry>
        </mxCell>
        <mxCell id="Bbd-Y3SnXmLpEQH7ZLkI-134" value="" style="endArrow=none;html=1;rounded=0;" edge="1" parent="1">
          <mxGeometry width="50" height="50" relative="1" as="geometry">
            <mxPoint x="130" y="-150" as="sourcePoint" />
            <mxPoint x="200" y="-150" as="targetPoint" />
          </mxGeometry>
        </mxCell>
        <mxCell id="Bbd-Y3SnXmLpEQH7ZLkI-135" value="" style="endArrow=none;html=1;rounded=0;entryX=-0.006;entryY=0.364;entryDx=0;entryDy=0;entryPerimeter=0;" edge="1" parent="1" target="Bbd-Y3SnXmLpEQH7ZLkI-111">
          <mxGeometry width="50" height="50" relative="1" as="geometry">
            <mxPoint x="120" y="-170" as="sourcePoint" />
            <mxPoint x="220" y="-172" as="targetPoint" />
          </mxGeometry>
        </mxCell>
        <mxCell id="Bbd-Y3SnXmLpEQH7ZLkI-136" value="" style="endArrow=none;html=1;rounded=0;" edge="1" parent="1">
          <mxGeometry width="50" height="50" relative="1" as="geometry">
            <mxPoint x="120" y="-80" as="sourcePoint" />
            <mxPoint x="200" y="-80" as="targetPoint" />
          </mxGeometry>
        </mxCell>
        <mxCell id="Bbd-Y3SnXmLpEQH7ZLkI-137" value="" style="endArrow=none;html=1;rounded=0;" edge="1" parent="1">
          <mxGeometry width="50" height="50" relative="1" as="geometry">
            <mxPoint x="110" y="-100" as="sourcePoint" />
            <mxPoint x="220" y="-100" as="targetPoint" />
          </mxGeometry>
        </mxCell>
        <mxCell id="Bbd-Y3SnXmLpEQH7ZLkI-138" value="" style="endArrow=none;html=1;rounded=0;entryX=0;entryY=0.75;entryDx=0;entryDy=0;entryPerimeter=0;" edge="1" parent="1">
          <mxGeometry width="50" height="50" relative="1" as="geometry">
            <mxPoint x="130" y="-60" as="sourcePoint" />
            <mxPoint x="220" y="-60" as="targetPoint" />
          </mxGeometry>
        </mxCell>
        <mxCell id="Bbd-Y3SnXmLpEQH7ZLkI-139" value="" style="endArrow=none;html=1;rounded=0;" edge="1" parent="1">
          <mxGeometry width="50" height="50" relative="1" as="geometry">
            <mxPoint x="140" y="-40" as="sourcePoint" />
            <mxPoint x="220" y="-40" as="targetPoint" />
          </mxGeometry>
        </mxCell>
        <mxCell id="Bbd-Y3SnXmLpEQH7ZLkI-143" style="edgeStyle=orthogonalEdgeStyle;rounded=0;orthogonalLoop=1;jettySize=auto;html=1;exitX=1;exitY=0.5;exitDx=0;exitDy=0;exitPerimeter=0;entryX=0.233;entryY=0.583;entryDx=0;entryDy=0;entryPerimeter=0;" edge="1" parent="1" source="Bbd-Y3SnXmLpEQH7ZLkI-111" target="Bbd-Y3SnXmLpEQH7ZLkI-63">
          <mxGeometry relative="1" as="geometry" />
        </mxCell>
        <mxCell id="Bbd-Y3SnXmLpEQH7ZLkI-144" style="edgeStyle=orthogonalEdgeStyle;rounded=0;orthogonalLoop=1;jettySize=auto;html=1;exitX=1;exitY=0.5;exitDx=0;exitDy=0;exitPerimeter=0;entryX=0.175;entryY=0.75;entryDx=0;entryDy=0;entryPerimeter=0;" edge="1" parent="1" source="Bbd-Y3SnXmLpEQH7ZLkI-102" target="Bbd-Y3SnXmLpEQH7ZLkI-63">
          <mxGeometry relative="1" as="geometry">
            <Array as="points">
              <mxPoint x="320" y="-70" />
              <mxPoint x="320" y="-170" />
            </Array>
          </mxGeometry>
        </mxCell>
        <mxCell id="Bbd-Y3SnXmLpEQH7ZLkI-170" style="edgeStyle=orthogonalEdgeStyle;rounded=0;orthogonalLoop=1;jettySize=auto;html=1;exitX=1;exitY=0.5;exitDx=0;exitDy=0;exitPerimeter=0;entryX=0.175;entryY=0.25;entryDx=0;entryDy=0;entryPerimeter=0;" edge="1" parent="1" target="Bbd-Y3SnXmLpEQH7ZLkI-172">
          <mxGeometry relative="1" as="geometry">
            <mxPoint x="350.005" y="175" as="targetPoint" />
            <mxPoint x="254.3800000000001" y="65" as="sourcePoint" />
            <Array as="points">
              <mxPoint x="254" y="66" />
              <mxPoint x="290" y="66" />
              <mxPoint x="290" y="175" />
            </Array>
          </mxGeometry>
        </mxCell>
        <mxCell id="Bbd-Y3SnXmLpEQH7ZLkI-171" value="" style="shape=or;whiteSpace=wrap;html=1;" vertex="1" parent="1">
          <mxGeometry x="220" y="25" width="40" height="80" as="geometry" />
        </mxCell>
        <mxCell id="Bbd-Y3SnXmLpEQH7ZLkI-480" style="edgeStyle=orthogonalEdgeStyle;rounded=0;orthogonalLoop=1;jettySize=auto;html=1;exitX=1;exitY=0.5;exitDx=0;exitDy=0;exitPerimeter=0;entryX=0.5;entryY=1;entryDx=0;entryDy=0;" edge="1" parent="1" source="Bbd-Y3SnXmLpEQH7ZLkI-172" target="Bbd-Y3SnXmLpEQH7ZLkI-475">
          <mxGeometry relative="1" as="geometry" />
        </mxCell>
        <mxCell id="Bbd-Y3SnXmLpEQH7ZLkI-172" value="" style="shape=xor;whiteSpace=wrap;html=1;" vertex="1" parent="1">
          <mxGeometry x="342.5" y="145" width="75" height="120" as="geometry" />
        </mxCell>
        <mxCell id="Bbd-Y3SnXmLpEQH7ZLkI-174" value="" style="verticalLabelPosition=bottom;shadow=0;dashed=0;align=center;html=1;verticalAlign=top;shape=mxgraph.electrical.logic_gates.inverter_2" vertex="1" parent="1">
          <mxGeometry x="200" y="85" width="20" height="20" as="geometry" />
        </mxCell>
        <mxCell id="Bbd-Y3SnXmLpEQH7ZLkI-176" value="" style="shape=or;whiteSpace=wrap;html=1;" vertex="1" parent="1">
          <mxGeometry x="220" y="295" width="40" height="80" as="geometry" />
        </mxCell>
        <mxCell id="Bbd-Y3SnXmLpEQH7ZLkI-177" value="" style="verticalLabelPosition=bottom;shadow=0;dashed=0;align=center;html=1;verticalAlign=top;shape=mxgraph.electrical.logic_gates.inverter_2" vertex="1" parent="1">
          <mxGeometry x="200" y="350" width="20" height="20" as="geometry" />
        </mxCell>
        <mxCell id="Bbd-Y3SnXmLpEQH7ZLkI-178" value="" style="shape=or;whiteSpace=wrap;html=1;" vertex="1" parent="1">
          <mxGeometry x="220" y="205" width="40" height="80" as="geometry" />
        </mxCell>
        <mxCell id="Bbd-Y3SnXmLpEQH7ZLkI-180" style="edgeStyle=orthogonalEdgeStyle;rounded=0;orthogonalLoop=1;jettySize=auto;html=1;exitX=1;exitY=0.5;exitDx=0;exitDy=0;exitPerimeter=0;entryX=0.233;entryY=0.417;entryDx=0;entryDy=0;entryPerimeter=0;" edge="1" parent="1" source="Bbd-Y3SnXmLpEQH7ZLkI-181" target="Bbd-Y3SnXmLpEQH7ZLkI-172">
          <mxGeometry relative="1" as="geometry">
            <mxPoint x="280" y="195" as="targetPoint" />
            <Array as="points">
              <mxPoint x="280" y="155" />
              <mxPoint x="280" y="195" />
            </Array>
          </mxGeometry>
        </mxCell>
        <mxCell id="Bbd-Y3SnXmLpEQH7ZLkI-181" value="" style="shape=or;whiteSpace=wrap;html=1;" vertex="1" parent="1">
          <mxGeometry x="220" y="115" width="40" height="80" as="geometry" />
        </mxCell>
        <mxCell id="Bbd-Y3SnXmLpEQH7ZLkI-182" value="" style="verticalLabelPosition=bottom;shadow=0;dashed=0;align=center;html=1;verticalAlign=top;shape=mxgraph.electrical.logic_gates.inverter_2" vertex="1" parent="1">
          <mxGeometry x="200" y="155" width="20" height="20" as="geometry" />
        </mxCell>
        <mxCell id="Bbd-Y3SnXmLpEQH7ZLkI-184" value="" style="verticalLabelPosition=bottom;shadow=0;dashed=0;align=center;html=1;verticalAlign=top;shape=mxgraph.electrical.logic_gates.inverter_2" vertex="1" parent="1">
          <mxGeometry x="200" y="115" width="20" height="20" as="geometry" />
        </mxCell>
        <mxCell id="Bbd-Y3SnXmLpEQH7ZLkI-185" style="edgeStyle=orthogonalEdgeStyle;rounded=0;orthogonalLoop=1;jettySize=auto;html=1;exitX=1;exitY=0.5;exitDx=0;exitDy=0;exitPerimeter=0;entryX=0.233;entryY=0.583;entryDx=0;entryDy=0;entryPerimeter=0;" edge="1" parent="1" source="Bbd-Y3SnXmLpEQH7ZLkI-178" target="Bbd-Y3SnXmLpEQH7ZLkI-172">
          <mxGeometry relative="1" as="geometry" />
        </mxCell>
        <mxCell id="Bbd-Y3SnXmLpEQH7ZLkI-186" style="edgeStyle=orthogonalEdgeStyle;rounded=0;orthogonalLoop=1;jettySize=auto;html=1;exitX=1;exitY=0.5;exitDx=0;exitDy=0;exitPerimeter=0;entryX=0.175;entryY=0.75;entryDx=0;entryDy=0;entryPerimeter=0;" edge="1" parent="1" source="Bbd-Y3SnXmLpEQH7ZLkI-176" target="Bbd-Y3SnXmLpEQH7ZLkI-172">
          <mxGeometry relative="1" as="geometry">
            <Array as="points">
              <mxPoint x="320" y="335" />
              <mxPoint x="320" y="235" />
            </Array>
          </mxGeometry>
        </mxCell>
        <mxCell id="Bbd-Y3SnXmLpEQH7ZLkI-187" value="" style="endArrow=none;html=1;rounded=0;" edge="1" parent="1">
          <mxGeometry width="50" height="50" relative="1" as="geometry">
            <mxPoint x="140" y="95" as="sourcePoint" />
            <mxPoint x="200" y="95" as="targetPoint" />
          </mxGeometry>
        </mxCell>
        <mxCell id="Bbd-Y3SnXmLpEQH7ZLkI-188" value="" style="endArrow=none;html=1;rounded=0;entryX=0;entryY=0.188;entryDx=0;entryDy=0;entryPerimeter=0;" edge="1" parent="1" target="Bbd-Y3SnXmLpEQH7ZLkI-171">
          <mxGeometry width="50" height="50" relative="1" as="geometry">
            <mxPoint x="110" y="40" as="sourcePoint" />
            <mxPoint x="200" y="35" as="targetPoint" />
            <Array as="points">
              <mxPoint x="180" y="40" />
            </Array>
          </mxGeometry>
        </mxCell>
        <mxCell id="Bbd-Y3SnXmLpEQH7ZLkI-189" value="" style="endArrow=none;html=1;rounded=0;" edge="1" parent="1">
          <mxGeometry width="50" height="50" relative="1" as="geometry">
            <mxPoint x="120" y="64.82" as="sourcePoint" />
            <mxPoint x="220" y="64.82" as="targetPoint" />
          </mxGeometry>
        </mxCell>
        <mxCell id="Bbd-Y3SnXmLpEQH7ZLkI-190" value="" style="endArrow=none;html=1;rounded=0;" edge="1" parent="1">
          <mxGeometry width="50" height="50" relative="1" as="geometry">
            <mxPoint x="110" y="125" as="sourcePoint" />
            <mxPoint x="200" y="125" as="targetPoint" />
          </mxGeometry>
        </mxCell>
        <mxCell id="Bbd-Y3SnXmLpEQH7ZLkI-191" value="" style="endArrow=none;html=1;rounded=0;" edge="1" parent="1">
          <mxGeometry width="50" height="50" relative="1" as="geometry">
            <mxPoint x="120" y="140" as="sourcePoint" />
            <mxPoint x="220" y="140" as="targetPoint" />
          </mxGeometry>
        </mxCell>
        <mxCell id="Bbd-Y3SnXmLpEQH7ZLkI-192" value="" style="endArrow=none;html=1;rounded=0;" edge="1" parent="1">
          <mxGeometry width="50" height="50" relative="1" as="geometry">
            <mxPoint x="120" y="164.92" as="sourcePoint" />
            <mxPoint x="200" y="164.92" as="targetPoint" />
            <Array as="points">
              <mxPoint x="160" y="164.92" />
            </Array>
          </mxGeometry>
        </mxCell>
        <mxCell id="Bbd-Y3SnXmLpEQH7ZLkI-193" value="" style="endArrow=none;html=1;rounded=0;" edge="1" parent="1">
          <mxGeometry width="50" height="50" relative="1" as="geometry">
            <mxPoint x="140" y="180" as="sourcePoint" />
            <mxPoint x="220" y="180" as="targetPoint" />
          </mxGeometry>
        </mxCell>
        <mxCell id="Bbd-Y3SnXmLpEQH7ZLkI-194" value="" style="endArrow=none;html=1;rounded=0;" edge="1" parent="1">
          <mxGeometry width="50" height="50" relative="1" as="geometry">
            <mxPoint x="110" y="219.77" as="sourcePoint" />
            <mxPoint x="220" y="219.77" as="targetPoint" />
          </mxGeometry>
        </mxCell>
        <mxCell id="Bbd-Y3SnXmLpEQH7ZLkI-195" value="" style="endArrow=none;html=1;rounded=0;" edge="1" parent="1">
          <mxGeometry width="50" height="50" relative="1" as="geometry">
            <mxPoint x="130" y="245" as="sourcePoint" />
            <mxPoint x="220" y="245" as="targetPoint" />
          </mxGeometry>
        </mxCell>
        <mxCell id="Bbd-Y3SnXmLpEQH7ZLkI-196" value="" style="endArrow=none;html=1;rounded=0;" edge="1" parent="1">
          <mxGeometry width="50" height="50" relative="1" as="geometry">
            <mxPoint x="140" y="270" as="sourcePoint" />
            <mxPoint x="220" y="270" as="targetPoint" />
          </mxGeometry>
        </mxCell>
        <mxCell id="Bbd-Y3SnXmLpEQH7ZLkI-197" value="" style="endArrow=none;html=1;rounded=0;" edge="1" parent="1">
          <mxGeometry width="50" height="50" relative="1" as="geometry">
            <mxPoint x="120" y="310" as="sourcePoint" />
            <mxPoint x="220" y="310" as="targetPoint" />
          </mxGeometry>
        </mxCell>
        <mxCell id="Bbd-Y3SnXmLpEQH7ZLkI-198" value="" style="endArrow=none;html=1;rounded=0;" edge="1" parent="1">
          <mxGeometry width="50" height="50" relative="1" as="geometry">
            <mxPoint x="130" y="334.77" as="sourcePoint" />
            <mxPoint x="220" y="334.77" as="targetPoint" />
          </mxGeometry>
        </mxCell>
        <mxCell id="Bbd-Y3SnXmLpEQH7ZLkI-200" value="" style="endArrow=none;html=1;rounded=0;" edge="1" parent="1">
          <mxGeometry width="50" height="50" relative="1" as="geometry">
            <mxPoint x="130" y="360" as="sourcePoint" />
            <mxPoint x="200" y="360" as="targetPoint" />
          </mxGeometry>
        </mxCell>
        <mxCell id="Bbd-Y3SnXmLpEQH7ZLkI-212" style="edgeStyle=orthogonalEdgeStyle;rounded=0;orthogonalLoop=1;jettySize=auto;html=1;exitX=1;exitY=0.5;exitDx=0;exitDy=0;exitPerimeter=0;entryX=0.136;entryY=0.179;entryDx=0;entryDy=0;entryPerimeter=0;" edge="1" parent="1" target="Bbd-Y3SnXmLpEQH7ZLkI-214">
          <mxGeometry relative="1" as="geometry">
            <mxPoint x="350.005" y="550" as="targetPoint" />
            <mxPoint x="254.3800000000001" y="440" as="sourcePoint" />
            <Array as="points">
              <mxPoint x="290" y="441" />
              <mxPoint x="290" y="541" />
              <mxPoint x="353" y="541" />
            </Array>
          </mxGeometry>
        </mxCell>
        <mxCell id="Bbd-Y3SnXmLpEQH7ZLkI-213" value="" style="shape=or;whiteSpace=wrap;html=1;" vertex="1" parent="1">
          <mxGeometry x="220" y="400" width="40" height="80" as="geometry" />
        </mxCell>
        <mxCell id="Bbd-Y3SnXmLpEQH7ZLkI-481" style="edgeStyle=orthogonalEdgeStyle;rounded=0;orthogonalLoop=1;jettySize=auto;html=1;exitX=1;exitY=0.5;exitDx=0;exitDy=0;exitPerimeter=0;" edge="1" parent="1" source="Bbd-Y3SnXmLpEQH7ZLkI-214" target="Bbd-Y3SnXmLpEQH7ZLkI-476">
          <mxGeometry relative="1" as="geometry" />
        </mxCell>
        <mxCell id="Bbd-Y3SnXmLpEQH7ZLkI-214" value="" style="shape=xor;whiteSpace=wrap;html=1;" vertex="1" parent="1">
          <mxGeometry x="342.5" y="520" width="75" height="120" as="geometry" />
        </mxCell>
        <mxCell id="Bbd-Y3SnXmLpEQH7ZLkI-215" value="" style="verticalLabelPosition=bottom;shadow=0;dashed=0;align=center;html=1;verticalAlign=top;shape=mxgraph.electrical.logic_gates.inverter_2" vertex="1" parent="1">
          <mxGeometry x="200" y="400" width="20" height="20" as="geometry" />
        </mxCell>
        <mxCell id="Bbd-Y3SnXmLpEQH7ZLkI-216" value="" style="verticalLabelPosition=bottom;shadow=0;dashed=0;align=center;html=1;verticalAlign=top;shape=mxgraph.electrical.logic_gates.inverter_2" vertex="1" parent="1">
          <mxGeometry x="200" y="460" width="20" height="20" as="geometry" />
        </mxCell>
        <mxCell id="Bbd-Y3SnXmLpEQH7ZLkI-217" value="" style="verticalLabelPosition=bottom;shadow=0;dashed=0;align=center;html=1;verticalAlign=top;shape=mxgraph.electrical.logic_gates.inverter_2" vertex="1" parent="1">
          <mxGeometry x="200" y="420" width="20" height="20" as="geometry" />
        </mxCell>
        <mxCell id="Bbd-Y3SnXmLpEQH7ZLkI-220" value="" style="shape=or;whiteSpace=wrap;html=1;" vertex="1" parent="1">
          <mxGeometry x="220" y="580" width="40" height="80" as="geometry" />
        </mxCell>
        <mxCell id="Bbd-Y3SnXmLpEQH7ZLkI-221" value="" style="verticalLabelPosition=bottom;shadow=0;dashed=0;align=center;html=1;verticalAlign=top;shape=mxgraph.electrical.logic_gates.inverter_2" vertex="1" parent="1">
          <mxGeometry x="200" y="640" width="20" height="20" as="geometry" />
        </mxCell>
        <mxCell id="Bbd-Y3SnXmLpEQH7ZLkI-222" style="edgeStyle=orthogonalEdgeStyle;rounded=0;orthogonalLoop=1;jettySize=auto;html=1;exitX=1;exitY=0.5;exitDx=0;exitDy=0;exitPerimeter=0;entryX=0.25;entryY=0.5;entryDx=0;entryDy=0;entryPerimeter=0;" edge="1" parent="1" source="Bbd-Y3SnXmLpEQH7ZLkI-223" target="Bbd-Y3SnXmLpEQH7ZLkI-214">
          <mxGeometry relative="1" as="geometry">
            <mxPoint x="280" y="570" as="targetPoint" />
            <Array as="points">
              <mxPoint x="280" y="530" />
              <mxPoint x="280" y="580" />
            </Array>
          </mxGeometry>
        </mxCell>
        <mxCell id="Bbd-Y3SnXmLpEQH7ZLkI-223" value="" style="shape=or;whiteSpace=wrap;html=1;" vertex="1" parent="1">
          <mxGeometry x="220" y="490" width="40" height="80" as="geometry" />
        </mxCell>
        <mxCell id="Bbd-Y3SnXmLpEQH7ZLkI-227" style="edgeStyle=orthogonalEdgeStyle;rounded=0;orthogonalLoop=1;jettySize=auto;html=1;exitX=1;exitY=0.5;exitDx=0;exitDy=0;exitPerimeter=0;entryX=0.147;entryY=0.828;entryDx=0;entryDy=0;entryPerimeter=0;" edge="1" parent="1" source="Bbd-Y3SnXmLpEQH7ZLkI-220" target="Bbd-Y3SnXmLpEQH7ZLkI-214">
          <mxGeometry relative="1" as="geometry" />
        </mxCell>
        <mxCell id="Bbd-Y3SnXmLpEQH7ZLkI-229" value="" style="endArrow=none;html=1;rounded=0;" edge="1" parent="1">
          <mxGeometry width="50" height="50" relative="1" as="geometry">
            <mxPoint x="110" y="410" as="sourcePoint" />
            <mxPoint x="200" y="410" as="targetPoint" />
          </mxGeometry>
        </mxCell>
        <mxCell id="Bbd-Y3SnXmLpEQH7ZLkI-230" value="" style="endArrow=none;html=1;rounded=0;" edge="1" parent="1">
          <mxGeometry width="50" height="50" relative="1" as="geometry">
            <mxPoint x="120" y="429.8" as="sourcePoint" />
            <mxPoint x="200" y="430" as="targetPoint" />
          </mxGeometry>
        </mxCell>
        <mxCell id="Bbd-Y3SnXmLpEQH7ZLkI-231" value="" style="endArrow=none;html=1;rounded=0;" edge="1" parent="1">
          <mxGeometry width="50" height="50" relative="1" as="geometry">
            <mxPoint x="130" y="450" as="sourcePoint" />
            <mxPoint x="220" y="450" as="targetPoint" />
          </mxGeometry>
        </mxCell>
        <mxCell id="Bbd-Y3SnXmLpEQH7ZLkI-232" value="" style="endArrow=none;html=1;rounded=0;" edge="1" parent="1">
          <mxGeometry width="50" height="50" relative="1" as="geometry">
            <mxPoint x="140" y="469.6" as="sourcePoint" />
            <mxPoint x="200" y="470" as="targetPoint" />
          </mxGeometry>
        </mxCell>
        <mxCell id="Bbd-Y3SnXmLpEQH7ZLkI-233" value="" style="endArrow=none;html=1;rounded=0;" edge="1" parent="1">
          <mxGeometry width="50" height="50" relative="1" as="geometry">
            <mxPoint x="110" y="500" as="sourcePoint" />
            <mxPoint x="220" y="500" as="targetPoint" />
          </mxGeometry>
        </mxCell>
        <mxCell id="Bbd-Y3SnXmLpEQH7ZLkI-234" value="" style="endArrow=none;html=1;rounded=0;" edge="1" parent="1">
          <mxGeometry width="50" height="50" relative="1" as="geometry">
            <mxPoint x="120" y="529.78" as="sourcePoint" />
            <mxPoint x="220" y="530" as="targetPoint" />
          </mxGeometry>
        </mxCell>
        <mxCell id="Bbd-Y3SnXmLpEQH7ZLkI-235" value="" style="endArrow=none;html=1;rounded=0;entryX=0;entryY=0.75;entryDx=0;entryDy=0;entryPerimeter=0;" edge="1" parent="1">
          <mxGeometry width="50" height="50" relative="1" as="geometry">
            <mxPoint x="130" y="560" as="sourcePoint" />
            <mxPoint x="220" y="559.9999999999998" as="targetPoint" />
          </mxGeometry>
        </mxCell>
        <mxCell id="Bbd-Y3SnXmLpEQH7ZLkI-236" value="" style="endArrow=none;html=1;rounded=0;entryX=-0.012;entryY=0.123;entryDx=0;entryDy=0;entryPerimeter=0;" edge="1" parent="1" target="Bbd-Y3SnXmLpEQH7ZLkI-220">
          <mxGeometry width="50" height="50" relative="1" as="geometry">
            <mxPoint x="110" y="590" as="sourcePoint" />
            <mxPoint x="160" y="570" as="targetPoint" />
          </mxGeometry>
        </mxCell>
        <mxCell id="Bbd-Y3SnXmLpEQH7ZLkI-237" value="" style="endArrow=none;html=1;rounded=0;" edge="1" parent="1">
          <mxGeometry width="50" height="50" relative="1" as="geometry">
            <mxPoint x="120" y="619.81" as="sourcePoint" />
            <mxPoint x="220" y="620" as="targetPoint" />
          </mxGeometry>
        </mxCell>
        <mxCell id="Bbd-Y3SnXmLpEQH7ZLkI-238" value="" style="endArrow=none;html=1;rounded=0;" edge="1" parent="1">
          <mxGeometry width="50" height="50" relative="1" as="geometry">
            <mxPoint x="140" y="649.81" as="sourcePoint" />
            <mxPoint x="200" y="650" as="targetPoint" />
          </mxGeometry>
        </mxCell>
        <mxCell id="Bbd-Y3SnXmLpEQH7ZLkI-239" style="edgeStyle=orthogonalEdgeStyle;rounded=0;orthogonalLoop=1;jettySize=auto;html=1;exitX=1;exitY=0.5;exitDx=0;exitDy=0;exitPerimeter=0;entryX=0.175;entryY=0.25;entryDx=0;entryDy=0;entryPerimeter=0;" edge="1" parent="1" target="Bbd-Y3SnXmLpEQH7ZLkI-241">
          <mxGeometry relative="1" as="geometry">
            <mxPoint x="350.005" y="850" as="targetPoint" />
            <mxPoint x="254.3800000000001" y="740" as="sourcePoint" />
            <Array as="points">
              <mxPoint x="254" y="741" />
              <mxPoint x="290" y="741" />
              <mxPoint x="290" y="850" />
            </Array>
          </mxGeometry>
        </mxCell>
        <mxCell id="Bbd-Y3SnXmLpEQH7ZLkI-240" value="" style="shape=or;whiteSpace=wrap;html=1;" vertex="1" parent="1">
          <mxGeometry x="220" y="700" width="40" height="80" as="geometry" />
        </mxCell>
        <mxCell id="Bbd-Y3SnXmLpEQH7ZLkI-482" style="edgeStyle=orthogonalEdgeStyle;rounded=0;orthogonalLoop=1;jettySize=auto;html=1;exitX=1;exitY=0.5;exitDx=0;exitDy=0;exitPerimeter=0;entryX=0.5;entryY=1;entryDx=0;entryDy=0;" edge="1" parent="1" source="Bbd-Y3SnXmLpEQH7ZLkI-241" target="Bbd-Y3SnXmLpEQH7ZLkI-478">
          <mxGeometry relative="1" as="geometry" />
        </mxCell>
        <mxCell id="Bbd-Y3SnXmLpEQH7ZLkI-241" value="" style="shape=xor;whiteSpace=wrap;html=1;" vertex="1" parent="1">
          <mxGeometry x="342.5" y="820" width="75" height="120" as="geometry" />
        </mxCell>
        <mxCell id="Bbd-Y3SnXmLpEQH7ZLkI-242" value="" style="verticalLabelPosition=bottom;shadow=0;dashed=0;align=center;html=1;verticalAlign=top;shape=mxgraph.electrical.logic_gates.inverter_2" vertex="1" parent="1">
          <mxGeometry x="200" y="700" width="20" height="20" as="geometry" />
        </mxCell>
        <mxCell id="Bbd-Y3SnXmLpEQH7ZLkI-243" value="" style="verticalLabelPosition=bottom;shadow=0;dashed=0;align=center;html=1;verticalAlign=top;shape=mxgraph.electrical.logic_gates.inverter_2" vertex="1" parent="1">
          <mxGeometry x="200" y="740" width="20" height="20" as="geometry" />
        </mxCell>
        <mxCell id="Bbd-Y3SnXmLpEQH7ZLkI-244" value="" style="verticalLabelPosition=bottom;shadow=0;dashed=0;align=center;html=1;verticalAlign=top;shape=mxgraph.electrical.logic_gates.inverter_2" vertex="1" parent="1">
          <mxGeometry x="200" y="760" width="20" height="20" as="geometry" />
        </mxCell>
        <mxCell id="Bbd-Y3SnXmLpEQH7ZLkI-245" value="" style="shape=or;whiteSpace=wrap;html=1;" vertex="1" parent="1">
          <mxGeometry x="220" y="970" width="40" height="80" as="geometry" />
        </mxCell>
        <mxCell id="Bbd-Y3SnXmLpEQH7ZLkI-247" value="" style="shape=or;whiteSpace=wrap;html=1;" vertex="1" parent="1">
          <mxGeometry x="220" y="880" width="40" height="80" as="geometry" />
        </mxCell>
        <mxCell id="Bbd-Y3SnXmLpEQH7ZLkI-248" value="" style="verticalLabelPosition=bottom;shadow=0;dashed=0;align=center;html=1;verticalAlign=top;shape=mxgraph.electrical.logic_gates.inverter_2" vertex="1" parent="1">
          <mxGeometry x="200" y="900" width="20" height="20" as="geometry" />
        </mxCell>
        <mxCell id="Bbd-Y3SnXmLpEQH7ZLkI-249" style="edgeStyle=orthogonalEdgeStyle;rounded=0;orthogonalLoop=1;jettySize=auto;html=1;exitX=1;exitY=0.5;exitDx=0;exitDy=0;exitPerimeter=0;entryX=0.233;entryY=0.417;entryDx=0;entryDy=0;entryPerimeter=0;" edge="1" parent="1" source="Bbd-Y3SnXmLpEQH7ZLkI-250" target="Bbd-Y3SnXmLpEQH7ZLkI-241">
          <mxGeometry relative="1" as="geometry">
            <mxPoint x="280" y="870" as="targetPoint" />
            <Array as="points">
              <mxPoint x="280" y="830" />
              <mxPoint x="280" y="870" />
            </Array>
          </mxGeometry>
        </mxCell>
        <mxCell id="Bbd-Y3SnXmLpEQH7ZLkI-250" value="" style="shape=or;whiteSpace=wrap;html=1;" vertex="1" parent="1">
          <mxGeometry x="220" y="790" width="40" height="80" as="geometry" />
        </mxCell>
        <mxCell id="Bbd-Y3SnXmLpEQH7ZLkI-251" value="" style="verticalLabelPosition=bottom;shadow=0;dashed=0;align=center;html=1;verticalAlign=top;shape=mxgraph.electrical.logic_gates.inverter_2" vertex="1" parent="1">
          <mxGeometry x="200" y="830" width="20" height="20" as="geometry" />
        </mxCell>
        <mxCell id="Bbd-Y3SnXmLpEQH7ZLkI-252" value="" style="verticalLabelPosition=bottom;shadow=0;dashed=0;align=center;html=1;verticalAlign=top;shape=mxgraph.electrical.logic_gates.inverter_2" vertex="1" parent="1">
          <mxGeometry x="200" y="810" width="20" height="20" as="geometry" />
        </mxCell>
        <mxCell id="Bbd-Y3SnXmLpEQH7ZLkI-253" value="" style="verticalLabelPosition=bottom;shadow=0;dashed=0;align=center;html=1;verticalAlign=top;shape=mxgraph.electrical.logic_gates.inverter_2" vertex="1" parent="1">
          <mxGeometry x="200" y="790" width="20" height="20" as="geometry" />
        </mxCell>
        <mxCell id="Bbd-Y3SnXmLpEQH7ZLkI-254" style="edgeStyle=orthogonalEdgeStyle;rounded=0;orthogonalLoop=1;jettySize=auto;html=1;exitX=1;exitY=0.5;exitDx=0;exitDy=0;exitPerimeter=0;entryX=0.233;entryY=0.583;entryDx=0;entryDy=0;entryPerimeter=0;" edge="1" parent="1" source="Bbd-Y3SnXmLpEQH7ZLkI-247" target="Bbd-Y3SnXmLpEQH7ZLkI-241">
          <mxGeometry relative="1" as="geometry" />
        </mxCell>
        <mxCell id="Bbd-Y3SnXmLpEQH7ZLkI-255" style="edgeStyle=orthogonalEdgeStyle;rounded=0;orthogonalLoop=1;jettySize=auto;html=1;exitX=1;exitY=0.5;exitDx=0;exitDy=0;exitPerimeter=0;entryX=0.175;entryY=0.75;entryDx=0;entryDy=0;entryPerimeter=0;" edge="1" parent="1" source="Bbd-Y3SnXmLpEQH7ZLkI-245" target="Bbd-Y3SnXmLpEQH7ZLkI-241">
          <mxGeometry relative="1" as="geometry">
            <Array as="points">
              <mxPoint x="320" y="1010" />
              <mxPoint x="320" y="910" />
            </Array>
          </mxGeometry>
        </mxCell>
        <mxCell id="Bbd-Y3SnXmLpEQH7ZLkI-257" value="" style="verticalLabelPosition=bottom;shadow=0;dashed=0;align=center;html=1;verticalAlign=top;shape=mxgraph.electrical.logic_gates.inverter_2" vertex="1" parent="1">
          <mxGeometry x="200" y="940" width="20" height="20" as="geometry" />
        </mxCell>
        <mxCell id="Bbd-Y3SnXmLpEQH7ZLkI-258" value="" style="endArrow=none;html=1;rounded=0;" edge="1" parent="1">
          <mxGeometry width="50" height="50" relative="1" as="geometry">
            <mxPoint x="110" y="710" as="sourcePoint" />
            <mxPoint x="200" y="710" as="targetPoint" />
          </mxGeometry>
        </mxCell>
        <mxCell id="Bbd-Y3SnXmLpEQH7ZLkI-259" value="" style="endArrow=none;html=1;rounded=0;entryX=-0.021;entryY=0.435;entryDx=0;entryDy=0;entryPerimeter=0;" edge="1" parent="1" target="Bbd-Y3SnXmLpEQH7ZLkI-240">
          <mxGeometry width="50" height="50" relative="1" as="geometry">
            <mxPoint x="120" y="734.71" as="sourcePoint" />
            <mxPoint x="210" y="734.71" as="targetPoint" />
          </mxGeometry>
        </mxCell>
        <mxCell id="Bbd-Y3SnXmLpEQH7ZLkI-260" value="" style="endArrow=none;html=1;rounded=0;" edge="1" parent="1">
          <mxGeometry width="50" height="50" relative="1" as="geometry">
            <mxPoint x="130" y="749.71" as="sourcePoint" />
            <mxPoint x="200" y="750" as="targetPoint" />
          </mxGeometry>
        </mxCell>
        <mxCell id="Bbd-Y3SnXmLpEQH7ZLkI-261" value="" style="endArrow=none;html=1;rounded=0;" edge="1" parent="1">
          <mxGeometry width="50" height="50" relative="1" as="geometry">
            <mxPoint x="140" y="769.71" as="sourcePoint" />
            <mxPoint x="200" y="770" as="targetPoint" />
          </mxGeometry>
        </mxCell>
        <mxCell id="Bbd-Y3SnXmLpEQH7ZLkI-262" value="" style="endArrow=none;html=1;rounded=0;" edge="1" parent="1">
          <mxGeometry width="50" height="50" relative="1" as="geometry">
            <mxPoint x="110" y="790" as="sourcePoint" />
            <mxPoint x="190" y="790" as="targetPoint" />
          </mxGeometry>
        </mxCell>
        <mxCell id="Bbd-Y3SnXmLpEQH7ZLkI-263" value="" style="endArrow=none;html=1;rounded=0;" edge="1" parent="1">
          <mxGeometry width="50" height="50" relative="1" as="geometry">
            <mxPoint x="190" y="800" as="sourcePoint" />
            <mxPoint x="190" y="790" as="targetPoint" />
          </mxGeometry>
        </mxCell>
        <mxCell id="Bbd-Y3SnXmLpEQH7ZLkI-264" value="" style="endArrow=none;html=1;rounded=0;entryX=0;entryY=0.5;entryDx=0;entryDy=0;entryPerimeter=0;" edge="1" parent="1" target="Bbd-Y3SnXmLpEQH7ZLkI-253">
          <mxGeometry width="50" height="50" relative="1" as="geometry">
            <mxPoint x="190" y="800" as="sourcePoint" />
            <mxPoint x="240" y="750" as="targetPoint" />
          </mxGeometry>
        </mxCell>
        <mxCell id="Bbd-Y3SnXmLpEQH7ZLkI-265" value="" style="endArrow=none;html=1;rounded=0;" edge="1" parent="1">
          <mxGeometry width="50" height="50" relative="1" as="geometry">
            <mxPoint x="120" y="820" as="sourcePoint" />
            <mxPoint x="200" y="820" as="targetPoint" />
          </mxGeometry>
        </mxCell>
        <mxCell id="Bbd-Y3SnXmLpEQH7ZLkI-266" value="" style="endArrow=none;html=1;rounded=0;" edge="1" parent="1">
          <mxGeometry width="50" height="50" relative="1" as="geometry">
            <mxPoint x="130" y="840" as="sourcePoint" />
            <mxPoint x="200" y="840" as="targetPoint" />
          </mxGeometry>
        </mxCell>
        <mxCell id="Bbd-Y3SnXmLpEQH7ZLkI-267" value="" style="endArrow=none;html=1;rounded=0;" edge="1" parent="1">
          <mxGeometry width="50" height="50" relative="1" as="geometry">
            <mxPoint x="140" y="860" as="sourcePoint" />
            <mxPoint x="220" y="860" as="targetPoint" />
          </mxGeometry>
        </mxCell>
        <mxCell id="Bbd-Y3SnXmLpEQH7ZLkI-268" value="" style="endArrow=none;html=1;rounded=0;" edge="1" parent="1">
          <mxGeometry width="50" height="50" relative="1" as="geometry">
            <mxPoint x="110" y="890" as="sourcePoint" />
            <mxPoint x="220" y="890" as="targetPoint" />
          </mxGeometry>
        </mxCell>
        <mxCell id="Bbd-Y3SnXmLpEQH7ZLkI-269" value="" style="endArrow=none;html=1;rounded=0;" edge="1" parent="1">
          <mxGeometry width="50" height="50" relative="1" as="geometry">
            <mxPoint x="120" y="909.84" as="sourcePoint" />
            <mxPoint x="200" y="910" as="targetPoint" />
          </mxGeometry>
        </mxCell>
        <mxCell id="Bbd-Y3SnXmLpEQH7ZLkI-270" value="" style="endArrow=none;html=1;rounded=0;" edge="1" parent="1">
          <mxGeometry width="50" height="50" relative="1" as="geometry">
            <mxPoint x="130" y="930" as="sourcePoint" />
            <mxPoint x="220" y="930" as="targetPoint" />
          </mxGeometry>
        </mxCell>
        <mxCell id="Bbd-Y3SnXmLpEQH7ZLkI-273" value="" style="endArrow=none;html=1;rounded=0;" edge="1" parent="1">
          <mxGeometry width="50" height="50" relative="1" as="geometry">
            <mxPoint x="130" y="949.84" as="sourcePoint" />
            <mxPoint x="200" y="950" as="targetPoint" />
          </mxGeometry>
        </mxCell>
        <mxCell id="Bbd-Y3SnXmLpEQH7ZLkI-274" value="" style="endArrow=none;html=1;rounded=0;" edge="1" parent="1">
          <mxGeometry width="50" height="50" relative="1" as="geometry">
            <mxPoint x="120" y="990" as="sourcePoint" />
            <mxPoint x="220" y="990" as="targetPoint" />
          </mxGeometry>
        </mxCell>
        <mxCell id="Bbd-Y3SnXmLpEQH7ZLkI-275" value="" style="endArrow=none;html=1;rounded=0;" edge="1" parent="1">
          <mxGeometry width="50" height="50" relative="1" as="geometry">
            <mxPoint x="130" y="1009.84" as="sourcePoint" />
            <mxPoint x="220" y="1010" as="targetPoint" />
          </mxGeometry>
        </mxCell>
        <mxCell id="Bbd-Y3SnXmLpEQH7ZLkI-276" value="" style="endArrow=none;html=1;rounded=0;" edge="1" parent="1">
          <mxGeometry width="50" height="50" relative="1" as="geometry">
            <mxPoint x="140" y="1030" as="sourcePoint" />
            <mxPoint x="220" y="1030" as="targetPoint" />
          </mxGeometry>
        </mxCell>
        <mxCell id="Bbd-Y3SnXmLpEQH7ZLkI-278" value="" style="shape=or;whiteSpace=wrap;html=1;" vertex="1" parent="1">
          <mxGeometry x="220" y="1080" width="40" height="80" as="geometry" />
        </mxCell>
        <mxCell id="Bbd-Y3SnXmLpEQH7ZLkI-483" style="edgeStyle=orthogonalEdgeStyle;rounded=0;orthogonalLoop=1;jettySize=auto;html=1;exitX=1;exitY=0.5;exitDx=0;exitDy=0;exitPerimeter=0;entryX=0.5;entryY=1;entryDx=0;entryDy=0;" edge="1" parent="1" source="Bbd-Y3SnXmLpEQH7ZLkI-279" target="Bbd-Y3SnXmLpEQH7ZLkI-477">
          <mxGeometry relative="1" as="geometry" />
        </mxCell>
        <mxCell id="Bbd-Y3SnXmLpEQH7ZLkI-279" value="" style="shape=xor;whiteSpace=wrap;html=1;" vertex="1" parent="1">
          <mxGeometry x="342.5" y="1150" width="75" height="120" as="geometry" />
        </mxCell>
        <mxCell id="Bbd-Y3SnXmLpEQH7ZLkI-280" value="" style="verticalLabelPosition=bottom;shadow=0;dashed=0;align=center;html=1;verticalAlign=top;shape=mxgraph.electrical.logic_gates.inverter_2" vertex="1" parent="1">
          <mxGeometry x="200" y="1090" width="20" height="20" as="geometry" />
        </mxCell>
        <mxCell id="Bbd-Y3SnXmLpEQH7ZLkI-284" value="" style="shape=or;whiteSpace=wrap;html=1;" vertex="1" parent="1">
          <mxGeometry x="220" y="1260" width="40" height="80" as="geometry" />
        </mxCell>
        <mxCell id="Bbd-Y3SnXmLpEQH7ZLkI-285" value="" style="verticalLabelPosition=bottom;shadow=0;dashed=0;align=center;html=1;verticalAlign=top;shape=mxgraph.electrical.logic_gates.inverter_2" vertex="1" parent="1">
          <mxGeometry x="200" y="1270" width="20" height="20" as="geometry" />
        </mxCell>
        <mxCell id="Bbd-Y3SnXmLpEQH7ZLkI-287" value="" style="shape=or;whiteSpace=wrap;html=1;" vertex="1" parent="1">
          <mxGeometry x="220" y="1170" width="40" height="80" as="geometry" />
        </mxCell>
        <mxCell id="Bbd-Y3SnXmLpEQH7ZLkI-288" value="" style="verticalLabelPosition=bottom;shadow=0;dashed=0;align=center;html=1;verticalAlign=top;shape=mxgraph.electrical.logic_gates.inverter_2" vertex="1" parent="1">
          <mxGeometry x="200" y="1220" width="20" height="20" as="geometry" />
        </mxCell>
        <mxCell id="Bbd-Y3SnXmLpEQH7ZLkI-290" value="" style="verticalLabelPosition=bottom;shadow=0;dashed=0;align=center;html=1;verticalAlign=top;shape=mxgraph.electrical.logic_gates.inverter_2" vertex="1" parent="1">
          <mxGeometry x="200" y="1180" width="20" height="20" as="geometry" />
        </mxCell>
        <mxCell id="Bbd-Y3SnXmLpEQH7ZLkI-294" value="" style="verticalLabelPosition=bottom;shadow=0;dashed=0;align=center;html=1;verticalAlign=top;shape=mxgraph.electrical.logic_gates.inverter_2" vertex="1" parent="1">
          <mxGeometry x="200" y="1290" width="20" height="20" as="geometry" />
        </mxCell>
        <mxCell id="Bbd-Y3SnXmLpEQH7ZLkI-295" value="" style="endArrow=none;html=1;rounded=0;" edge="1" parent="1">
          <mxGeometry width="50" height="50" relative="1" as="geometry">
            <mxPoint x="110" y="1099.66" as="sourcePoint" />
            <mxPoint x="200" y="1099.66" as="targetPoint" />
          </mxGeometry>
        </mxCell>
        <mxCell id="Bbd-Y3SnXmLpEQH7ZLkI-296" value="" style="endArrow=none;html=1;rounded=0;" edge="1" parent="1">
          <mxGeometry width="50" height="50" relative="1" as="geometry">
            <mxPoint x="140" y="1140.31" as="sourcePoint" />
            <mxPoint x="220" y="1140" as="targetPoint" />
          </mxGeometry>
        </mxCell>
        <mxCell id="Bbd-Y3SnXmLpEQH7ZLkI-297" value="" style="endArrow=none;html=1;rounded=0;" edge="1" parent="1">
          <mxGeometry width="50" height="50" relative="1" as="geometry">
            <mxPoint x="110" y="1190" as="sourcePoint" />
            <mxPoint x="200" y="1190" as="targetPoint" />
          </mxGeometry>
        </mxCell>
        <mxCell id="Bbd-Y3SnXmLpEQH7ZLkI-298" value="" style="endArrow=none;html=1;rounded=0;entryX=0;entryY=0.5;entryDx=0;entryDy=0;entryPerimeter=0;" edge="1" parent="1" target="Bbd-Y3SnXmLpEQH7ZLkI-287">
          <mxGeometry width="50" height="50" relative="1" as="geometry">
            <mxPoint x="120" y="1209.76" as="sourcePoint" />
            <mxPoint x="210" y="1209.76" as="targetPoint" />
          </mxGeometry>
        </mxCell>
        <mxCell id="Bbd-Y3SnXmLpEQH7ZLkI-299" value="" style="endArrow=none;html=1;rounded=0;" edge="1" parent="1">
          <mxGeometry width="50" height="50" relative="1" as="geometry">
            <mxPoint x="130" y="1229.76" as="sourcePoint" />
            <mxPoint x="200" y="1230" as="targetPoint" />
          </mxGeometry>
        </mxCell>
        <mxCell id="Bbd-Y3SnXmLpEQH7ZLkI-300" value="" style="endArrow=none;html=1;rounded=0;" edge="1" parent="1">
          <mxGeometry width="50" height="50" relative="1" as="geometry">
            <mxPoint x="120" y="1280" as="sourcePoint" />
            <mxPoint x="200" y="1280" as="targetPoint" />
          </mxGeometry>
        </mxCell>
        <mxCell id="Bbd-Y3SnXmLpEQH7ZLkI-301" value="" style="endArrow=none;html=1;rounded=0;" edge="1" parent="1">
          <mxGeometry width="50" height="50" relative="1" as="geometry">
            <mxPoint x="130" y="1300" as="sourcePoint" />
            <mxPoint x="200" y="1300" as="targetPoint" />
          </mxGeometry>
        </mxCell>
        <mxCell id="Bbd-Y3SnXmLpEQH7ZLkI-302" value="" style="endArrow=none;html=1;rounded=0;" edge="1" parent="1">
          <mxGeometry width="50" height="50" relative="1" as="geometry">
            <mxPoint x="140" y="1320" as="sourcePoint" />
            <mxPoint x="220" y="1320" as="targetPoint" />
          </mxGeometry>
        </mxCell>
        <mxCell id="Bbd-Y3SnXmLpEQH7ZLkI-303" style="edgeStyle=orthogonalEdgeStyle;rounded=0;orthogonalLoop=1;jettySize=auto;html=1;exitX=1;exitY=0.5;exitDx=0;exitDy=0;exitPerimeter=0;entryX=0.175;entryY=0.25;entryDx=0;entryDy=0;entryPerimeter=0;" edge="1" parent="1" source="Bbd-Y3SnXmLpEQH7ZLkI-278" target="Bbd-Y3SnXmLpEQH7ZLkI-279">
          <mxGeometry relative="1" as="geometry" />
        </mxCell>
        <mxCell id="Bbd-Y3SnXmLpEQH7ZLkI-304" style="edgeStyle=orthogonalEdgeStyle;rounded=0;orthogonalLoop=1;jettySize=auto;html=1;exitX=1;exitY=0.5;exitDx=0;exitDy=0;exitPerimeter=0;entryX=0.25;entryY=0.5;entryDx=0;entryDy=0;entryPerimeter=0;" edge="1" parent="1" source="Bbd-Y3SnXmLpEQH7ZLkI-287" target="Bbd-Y3SnXmLpEQH7ZLkI-279">
          <mxGeometry relative="1" as="geometry" />
        </mxCell>
        <mxCell id="Bbd-Y3SnXmLpEQH7ZLkI-305" style="edgeStyle=orthogonalEdgeStyle;rounded=0;orthogonalLoop=1;jettySize=auto;html=1;exitX=1;exitY=0.5;exitDx=0;exitDy=0;exitPerimeter=0;entryX=0.175;entryY=0.75;entryDx=0;entryDy=0;entryPerimeter=0;" edge="1" parent="1" source="Bbd-Y3SnXmLpEQH7ZLkI-284" target="Bbd-Y3SnXmLpEQH7ZLkI-279">
          <mxGeometry relative="1" as="geometry" />
        </mxCell>
        <mxCell id="Bbd-Y3SnXmLpEQH7ZLkI-306" style="edgeStyle=orthogonalEdgeStyle;rounded=0;orthogonalLoop=1;jettySize=auto;html=1;exitX=1;exitY=0.5;exitDx=0;exitDy=0;exitPerimeter=0;entryX=0.175;entryY=0.25;entryDx=0;entryDy=0;entryPerimeter=0;" edge="1" parent="1" target="Bbd-Y3SnXmLpEQH7ZLkI-308">
          <mxGeometry relative="1" as="geometry">
            <mxPoint x="350.005" y="1530" as="targetPoint" />
            <mxPoint x="254.3800000000001" y="1420" as="sourcePoint" />
            <Array as="points">
              <mxPoint x="254" y="1421" />
              <mxPoint x="290" y="1421" />
              <mxPoint x="290" y="1530" />
            </Array>
          </mxGeometry>
        </mxCell>
        <mxCell id="Bbd-Y3SnXmLpEQH7ZLkI-307" value="" style="shape=or;whiteSpace=wrap;html=1;" vertex="1" parent="1">
          <mxGeometry x="220" y="1380" width="40" height="80" as="geometry" />
        </mxCell>
        <mxCell id="Bbd-Y3SnXmLpEQH7ZLkI-484" style="edgeStyle=orthogonalEdgeStyle;rounded=0;orthogonalLoop=1;jettySize=auto;html=1;exitX=1;exitY=0.5;exitDx=0;exitDy=0;exitPerimeter=0;entryX=0.5;entryY=1;entryDx=0;entryDy=0;" edge="1" parent="1" source="Bbd-Y3SnXmLpEQH7ZLkI-308" target="Bbd-Y3SnXmLpEQH7ZLkI-473">
          <mxGeometry relative="1" as="geometry" />
        </mxCell>
        <mxCell id="Bbd-Y3SnXmLpEQH7ZLkI-308" value="" style="shape=xor;whiteSpace=wrap;html=1;" vertex="1" parent="1">
          <mxGeometry x="342.5" y="1500" width="75" height="120" as="geometry" />
        </mxCell>
        <mxCell id="Bbd-Y3SnXmLpEQH7ZLkI-309" value="" style="verticalLabelPosition=bottom;shadow=0;dashed=0;align=center;html=1;verticalAlign=top;shape=mxgraph.electrical.logic_gates.inverter_2" vertex="1" parent="1">
          <mxGeometry x="200" y="1390" width="20" height="20" as="geometry" />
        </mxCell>
        <mxCell id="Bbd-Y3SnXmLpEQH7ZLkI-311" value="" style="verticalLabelPosition=bottom;shadow=0;dashed=0;align=center;html=1;verticalAlign=top;shape=mxgraph.electrical.logic_gates.inverter_2" vertex="1" parent="1">
          <mxGeometry x="200" y="1410" width="20" height="20" as="geometry" />
        </mxCell>
        <mxCell id="Bbd-Y3SnXmLpEQH7ZLkI-312" value="" style="shape=or;whiteSpace=wrap;html=1;" vertex="1" parent="1">
          <mxGeometry x="220" y="1650" width="40" height="80" as="geometry" />
        </mxCell>
        <mxCell id="Bbd-Y3SnXmLpEQH7ZLkI-313" value="" style="verticalLabelPosition=bottom;shadow=0;dashed=0;align=center;html=1;verticalAlign=top;shape=mxgraph.electrical.logic_gates.inverter_2" vertex="1" parent="1">
          <mxGeometry x="200" y="1660" width="20" height="20" as="geometry" />
        </mxCell>
        <mxCell id="Bbd-Y3SnXmLpEQH7ZLkI-314" value="" style="shape=or;whiteSpace=wrap;html=1;" vertex="1" parent="1">
          <mxGeometry x="220" y="1560" width="40" height="80" as="geometry" />
        </mxCell>
        <mxCell id="Bbd-Y3SnXmLpEQH7ZLkI-315" value="" style="verticalLabelPosition=bottom;shadow=0;dashed=0;align=center;html=1;verticalAlign=top;shape=mxgraph.electrical.logic_gates.inverter_2" vertex="1" parent="1">
          <mxGeometry x="200" y="1600" width="20" height="20" as="geometry" />
        </mxCell>
        <mxCell id="Bbd-Y3SnXmLpEQH7ZLkI-316" style="edgeStyle=orthogonalEdgeStyle;rounded=0;orthogonalLoop=1;jettySize=auto;html=1;exitX=1;exitY=0.5;exitDx=0;exitDy=0;exitPerimeter=0;entryX=0.233;entryY=0.417;entryDx=0;entryDy=0;entryPerimeter=0;" edge="1" parent="1" source="Bbd-Y3SnXmLpEQH7ZLkI-317" target="Bbd-Y3SnXmLpEQH7ZLkI-308">
          <mxGeometry relative="1" as="geometry">
            <mxPoint x="280" y="1550" as="targetPoint" />
            <Array as="points">
              <mxPoint x="280" y="1510" />
              <mxPoint x="280" y="1550" />
            </Array>
          </mxGeometry>
        </mxCell>
        <mxCell id="Bbd-Y3SnXmLpEQH7ZLkI-317" value="" style="shape=or;whiteSpace=wrap;html=1;" vertex="1" parent="1">
          <mxGeometry x="220" y="1470" width="40" height="80" as="geometry" />
        </mxCell>
        <mxCell id="Bbd-Y3SnXmLpEQH7ZLkI-318" value="" style="verticalLabelPosition=bottom;shadow=0;dashed=0;align=center;html=1;verticalAlign=top;shape=mxgraph.electrical.logic_gates.inverter_2" vertex="1" parent="1">
          <mxGeometry x="200" y="1500" width="20" height="20" as="geometry" />
        </mxCell>
        <mxCell id="Bbd-Y3SnXmLpEQH7ZLkI-320" value="" style="verticalLabelPosition=bottom;shadow=0;dashed=0;align=center;html=1;verticalAlign=top;shape=mxgraph.electrical.logic_gates.inverter_2" vertex="1" parent="1">
          <mxGeometry x="200" y="1480" width="20" height="20" as="geometry" />
        </mxCell>
        <mxCell id="Bbd-Y3SnXmLpEQH7ZLkI-321" style="edgeStyle=orthogonalEdgeStyle;rounded=0;orthogonalLoop=1;jettySize=auto;html=1;exitX=1;exitY=0.5;exitDx=0;exitDy=0;exitPerimeter=0;entryX=0.233;entryY=0.583;entryDx=0;entryDy=0;entryPerimeter=0;" edge="1" parent="1" source="Bbd-Y3SnXmLpEQH7ZLkI-314" target="Bbd-Y3SnXmLpEQH7ZLkI-308">
          <mxGeometry relative="1" as="geometry" />
        </mxCell>
        <mxCell id="Bbd-Y3SnXmLpEQH7ZLkI-322" style="edgeStyle=orthogonalEdgeStyle;rounded=0;orthogonalLoop=1;jettySize=auto;html=1;exitX=1;exitY=0.5;exitDx=0;exitDy=0;exitPerimeter=0;entryX=0.175;entryY=0.75;entryDx=0;entryDy=0;entryPerimeter=0;" edge="1" parent="1" source="Bbd-Y3SnXmLpEQH7ZLkI-312" target="Bbd-Y3SnXmLpEQH7ZLkI-308">
          <mxGeometry relative="1" as="geometry">
            <Array as="points">
              <mxPoint x="320" y="1690" />
              <mxPoint x="320" y="1590" />
            </Array>
          </mxGeometry>
        </mxCell>
        <mxCell id="Bbd-Y3SnXmLpEQH7ZLkI-324" value="" style="endArrow=none;html=1;rounded=0;" edge="1" parent="1">
          <mxGeometry width="50" height="50" relative="1" as="geometry">
            <mxPoint x="110" y="1400" as="sourcePoint" />
            <mxPoint x="200" y="1400" as="targetPoint" />
          </mxGeometry>
        </mxCell>
        <mxCell id="Bbd-Y3SnXmLpEQH7ZLkI-325" value="" style="endArrow=none;html=1;rounded=0;" edge="1" parent="1">
          <mxGeometry width="50" height="50" relative="1" as="geometry">
            <mxPoint x="120" y="1420" as="sourcePoint" />
            <mxPoint x="200" y="1420" as="targetPoint" />
          </mxGeometry>
        </mxCell>
        <mxCell id="Bbd-Y3SnXmLpEQH7ZLkI-326" value="" style="endArrow=none;html=1;rounded=0;" edge="1" parent="1">
          <mxGeometry width="50" height="50" relative="1" as="geometry">
            <mxPoint x="140" y="1440" as="sourcePoint" />
            <mxPoint x="220" y="1440" as="targetPoint" />
          </mxGeometry>
        </mxCell>
        <mxCell id="Bbd-Y3SnXmLpEQH7ZLkI-327" value="" style="endArrow=none;html=1;rounded=0;" edge="1" parent="1">
          <mxGeometry width="50" height="50" relative="1" as="geometry">
            <mxPoint x="110" y="1490" as="sourcePoint" />
            <mxPoint x="200" y="1490" as="targetPoint" />
          </mxGeometry>
        </mxCell>
        <mxCell id="Bbd-Y3SnXmLpEQH7ZLkI-328" value="" style="endArrow=none;html=1;rounded=0;" edge="1" parent="1">
          <mxGeometry width="50" height="50" relative="1" as="geometry">
            <mxPoint x="120" y="1510" as="sourcePoint" />
            <mxPoint x="200" y="1510" as="targetPoint" />
          </mxGeometry>
        </mxCell>
        <mxCell id="Bbd-Y3SnXmLpEQH7ZLkI-329" value="" style="endArrow=none;html=1;rounded=0;" edge="1" parent="1">
          <mxGeometry width="50" height="50" relative="1" as="geometry">
            <mxPoint x="130" y="1530" as="sourcePoint" />
            <mxPoint x="220" y="1530" as="targetPoint" />
          </mxGeometry>
        </mxCell>
        <mxCell id="Bbd-Y3SnXmLpEQH7ZLkI-330" value="" style="endArrow=none;html=1;rounded=0;" edge="1" parent="1">
          <mxGeometry width="50" height="50" relative="1" as="geometry">
            <mxPoint x="110" y="1570" as="sourcePoint" />
            <mxPoint x="220" y="1570" as="targetPoint" />
          </mxGeometry>
        </mxCell>
        <mxCell id="Bbd-Y3SnXmLpEQH7ZLkI-331" value="" style="endArrow=none;html=1;rounded=0;" edge="1" parent="1">
          <mxGeometry width="50" height="50" relative="1" as="geometry">
            <mxPoint x="120" y="1590" as="sourcePoint" />
            <mxPoint x="220" y="1590" as="targetPoint" />
          </mxGeometry>
        </mxCell>
        <mxCell id="Bbd-Y3SnXmLpEQH7ZLkI-332" value="" style="endArrow=none;html=1;rounded=0;" edge="1" parent="1">
          <mxGeometry width="50" height="50" relative="1" as="geometry">
            <mxPoint x="130" y="1610" as="sourcePoint" />
            <mxPoint x="200" y="1610" as="targetPoint" />
          </mxGeometry>
        </mxCell>
        <mxCell id="Bbd-Y3SnXmLpEQH7ZLkI-333" value="" style="endArrow=none;html=1;rounded=0;" edge="1" parent="1">
          <mxGeometry width="50" height="50" relative="1" as="geometry">
            <mxPoint x="140" y="1630" as="sourcePoint" />
            <mxPoint x="220" y="1630" as="targetPoint" />
          </mxGeometry>
        </mxCell>
        <mxCell id="Bbd-Y3SnXmLpEQH7ZLkI-334" value="" style="endArrow=none;html=1;rounded=0;" edge="1" parent="1">
          <mxGeometry width="50" height="50" relative="1" as="geometry">
            <mxPoint x="130" y="1690" as="sourcePoint" />
            <mxPoint x="220" y="1690" as="targetPoint" />
          </mxGeometry>
        </mxCell>
        <mxCell id="Bbd-Y3SnXmLpEQH7ZLkI-335" value="" style="endArrow=none;html=1;rounded=0;" edge="1" parent="1">
          <mxGeometry width="50" height="50" relative="1" as="geometry">
            <mxPoint x="110" y="1670" as="sourcePoint" />
            <mxPoint x="200" y="1670" as="targetPoint" />
          </mxGeometry>
        </mxCell>
        <mxCell id="Bbd-Y3SnXmLpEQH7ZLkI-336" value="" style="endArrow=none;html=1;rounded=0;" edge="1" parent="1">
          <mxGeometry width="50" height="50" relative="1" as="geometry">
            <mxPoint x="140" y="1710" as="sourcePoint" />
            <mxPoint x="220" y="1710" as="targetPoint" />
          </mxGeometry>
        </mxCell>
        <mxCell id="Bbd-Y3SnXmLpEQH7ZLkI-354" value="" style="shape=or;whiteSpace=wrap;html=1;" vertex="1" parent="1">
          <mxGeometry x="220" y="1770" width="40" height="80" as="geometry" />
        </mxCell>
        <mxCell id="Bbd-Y3SnXmLpEQH7ZLkI-485" style="edgeStyle=orthogonalEdgeStyle;rounded=0;orthogonalLoop=1;jettySize=auto;html=1;exitX=1;exitY=0.5;exitDx=0;exitDy=0;exitPerimeter=0;entryX=0.5;entryY=1;entryDx=0;entryDy=0;" edge="1" parent="1" source="Bbd-Y3SnXmLpEQH7ZLkI-355" target="Bbd-Y3SnXmLpEQH7ZLkI-472">
          <mxGeometry relative="1" as="geometry" />
        </mxCell>
        <mxCell id="Bbd-Y3SnXmLpEQH7ZLkI-355" value="" style="shape=xor;whiteSpace=wrap;html=1;" vertex="1" parent="1">
          <mxGeometry x="342.5" y="1840" width="75" height="120" as="geometry" />
        </mxCell>
        <mxCell id="Bbd-Y3SnXmLpEQH7ZLkI-356" value="" style="verticalLabelPosition=bottom;shadow=0;dashed=0;align=center;html=1;verticalAlign=top;shape=mxgraph.electrical.logic_gates.inverter_2" vertex="1" parent="1">
          <mxGeometry x="200" y="1810" width="20" height="20" as="geometry" />
        </mxCell>
        <mxCell id="Bbd-Y3SnXmLpEQH7ZLkI-357" value="" style="verticalLabelPosition=bottom;shadow=0;dashed=0;align=center;html=1;verticalAlign=top;shape=mxgraph.electrical.logic_gates.inverter_2" vertex="1" parent="1">
          <mxGeometry x="200" y="1830" width="20" height="20" as="geometry" />
        </mxCell>
        <mxCell id="Bbd-Y3SnXmLpEQH7ZLkI-358" value="" style="verticalLabelPosition=bottom;shadow=0;dashed=0;align=center;html=1;verticalAlign=top;shape=mxgraph.electrical.logic_gates.inverter_2" vertex="1" parent="1">
          <mxGeometry x="200" y="2000" width="20" height="20" as="geometry" />
        </mxCell>
        <mxCell id="Bbd-Y3SnXmLpEQH7ZLkI-359" value="" style="shape=or;whiteSpace=wrap;html=1;" vertex="1" parent="1">
          <mxGeometry x="220" y="1950" width="40" height="80" as="geometry" />
        </mxCell>
        <mxCell id="Bbd-Y3SnXmLpEQH7ZLkI-360" value="" style="verticalLabelPosition=bottom;shadow=0;dashed=0;align=center;html=1;verticalAlign=top;shape=mxgraph.electrical.logic_gates.inverter_2" vertex="1" parent="1">
          <mxGeometry x="200" y="1960" width="20" height="20" as="geometry" />
        </mxCell>
        <mxCell id="Bbd-Y3SnXmLpEQH7ZLkI-361" value="" style="shape=or;whiteSpace=wrap;html=1;" vertex="1" parent="1">
          <mxGeometry x="220" y="1860" width="40" height="80" as="geometry" />
        </mxCell>
        <mxCell id="Bbd-Y3SnXmLpEQH7ZLkI-363" value="" style="verticalLabelPosition=bottom;shadow=0;dashed=0;align=center;html=1;verticalAlign=top;shape=mxgraph.electrical.logic_gates.inverter_2" vertex="1" parent="1">
          <mxGeometry x="200" y="1860" width="20" height="20" as="geometry" />
        </mxCell>
        <mxCell id="Bbd-Y3SnXmLpEQH7ZLkI-364" value="" style="verticalLabelPosition=bottom;shadow=0;dashed=0;align=center;html=1;verticalAlign=top;shape=mxgraph.electrical.logic_gates.inverter_2" vertex="1" parent="1">
          <mxGeometry x="200" y="1980" width="20" height="20" as="geometry" />
        </mxCell>
        <mxCell id="Bbd-Y3SnXmLpEQH7ZLkI-365" style="edgeStyle=orthogonalEdgeStyle;rounded=0;orthogonalLoop=1;jettySize=auto;html=1;exitX=1;exitY=0.5;exitDx=0;exitDy=0;exitPerimeter=0;entryX=0.175;entryY=0.25;entryDx=0;entryDy=0;entryPerimeter=0;" edge="1" parent="1" source="Bbd-Y3SnXmLpEQH7ZLkI-354" target="Bbd-Y3SnXmLpEQH7ZLkI-355">
          <mxGeometry relative="1" as="geometry" />
        </mxCell>
        <mxCell id="Bbd-Y3SnXmLpEQH7ZLkI-366" style="edgeStyle=orthogonalEdgeStyle;rounded=0;orthogonalLoop=1;jettySize=auto;html=1;exitX=1;exitY=0.5;exitDx=0;exitDy=0;exitPerimeter=0;entryX=0.25;entryY=0.5;entryDx=0;entryDy=0;entryPerimeter=0;" edge="1" parent="1" source="Bbd-Y3SnXmLpEQH7ZLkI-361" target="Bbd-Y3SnXmLpEQH7ZLkI-355">
          <mxGeometry relative="1" as="geometry" />
        </mxCell>
        <mxCell id="Bbd-Y3SnXmLpEQH7ZLkI-367" style="edgeStyle=orthogonalEdgeStyle;rounded=0;orthogonalLoop=1;jettySize=auto;html=1;exitX=1;exitY=0.5;exitDx=0;exitDy=0;exitPerimeter=0;entryX=0.175;entryY=0.75;entryDx=0;entryDy=0;entryPerimeter=0;" edge="1" parent="1" source="Bbd-Y3SnXmLpEQH7ZLkI-359" target="Bbd-Y3SnXmLpEQH7ZLkI-355">
          <mxGeometry relative="1" as="geometry" />
        </mxCell>
        <mxCell id="Bbd-Y3SnXmLpEQH7ZLkI-369" value="" style="endArrow=none;html=1;rounded=0;" edge="1" parent="1">
          <mxGeometry width="50" height="50" relative="1" as="geometry">
            <mxPoint x="110" y="1780" as="sourcePoint" />
            <mxPoint x="220" y="1780" as="targetPoint" />
          </mxGeometry>
        </mxCell>
        <mxCell id="Bbd-Y3SnXmLpEQH7ZLkI-370" value="" style="endArrow=none;html=1;rounded=0;" edge="1" parent="1">
          <mxGeometry width="50" height="50" relative="1" as="geometry">
            <mxPoint x="120" y="1800" as="sourcePoint" />
            <mxPoint x="220" y="1800" as="targetPoint" />
          </mxGeometry>
        </mxCell>
        <mxCell id="Bbd-Y3SnXmLpEQH7ZLkI-371" value="" style="endArrow=none;html=1;rounded=0;" edge="1" parent="1">
          <mxGeometry width="50" height="50" relative="1" as="geometry">
            <mxPoint x="130" y="1820" as="sourcePoint" />
            <mxPoint x="200" y="1820" as="targetPoint" />
          </mxGeometry>
        </mxCell>
        <mxCell id="Bbd-Y3SnXmLpEQH7ZLkI-372" value="" style="endArrow=none;html=1;rounded=0;" edge="1" parent="1">
          <mxGeometry width="50" height="50" relative="1" as="geometry">
            <mxPoint x="140" y="1840" as="sourcePoint" />
            <mxPoint x="200" y="1840" as="targetPoint" />
          </mxGeometry>
        </mxCell>
        <mxCell id="Bbd-Y3SnXmLpEQH7ZLkI-373" value="" style="endArrow=none;html=1;rounded=0;" edge="1" parent="1">
          <mxGeometry width="50" height="50" relative="1" as="geometry">
            <mxPoint x="110" y="1870" as="sourcePoint" />
            <mxPoint x="200" y="1870" as="targetPoint" />
          </mxGeometry>
        </mxCell>
        <mxCell id="Bbd-Y3SnXmLpEQH7ZLkI-374" value="" style="endArrow=none;html=1;rounded=0;" edge="1" parent="1">
          <mxGeometry width="50" height="50" relative="1" as="geometry">
            <mxPoint x="120" y="1890" as="sourcePoint" />
            <mxPoint x="220" y="1890" as="targetPoint" />
          </mxGeometry>
        </mxCell>
        <mxCell id="Bbd-Y3SnXmLpEQH7ZLkI-375" value="" style="endArrow=none;html=1;rounded=0;" edge="1" parent="1">
          <mxGeometry width="50" height="50" relative="1" as="geometry">
            <mxPoint x="130" y="1910" as="sourcePoint" />
            <mxPoint x="220" y="1910" as="targetPoint" />
          </mxGeometry>
        </mxCell>
        <mxCell id="Bbd-Y3SnXmLpEQH7ZLkI-376" value="" style="endArrow=none;html=1;rounded=0;" edge="1" parent="1">
          <mxGeometry width="50" height="50" relative="1" as="geometry">
            <mxPoint x="140" y="1930" as="sourcePoint" />
            <mxPoint x="220" y="1930" as="targetPoint" />
          </mxGeometry>
        </mxCell>
        <mxCell id="Bbd-Y3SnXmLpEQH7ZLkI-377" value="" style="endArrow=none;html=1;rounded=0;" edge="1" parent="1">
          <mxGeometry width="50" height="50" relative="1" as="geometry">
            <mxPoint x="110" y="1970" as="sourcePoint" />
            <mxPoint x="200" y="1970" as="targetPoint" />
          </mxGeometry>
        </mxCell>
        <mxCell id="Bbd-Y3SnXmLpEQH7ZLkI-378" value="" style="endArrow=none;html=1;rounded=0;entryX=0;entryY=0.5;entryDx=0;entryDy=0;entryPerimeter=0;" edge="1" parent="1" target="Bbd-Y3SnXmLpEQH7ZLkI-364">
          <mxGeometry width="50" height="50" relative="1" as="geometry">
            <mxPoint x="120" y="1990" as="sourcePoint" />
            <mxPoint x="170" y="1940" as="targetPoint" />
          </mxGeometry>
        </mxCell>
        <mxCell id="Bbd-Y3SnXmLpEQH7ZLkI-379" value="" style="endArrow=none;html=1;rounded=0;entryX=0;entryY=0.5;entryDx=0;entryDy=0;entryPerimeter=0;" edge="1" parent="1" target="Bbd-Y3SnXmLpEQH7ZLkI-358">
          <mxGeometry width="50" height="50" relative="1" as="geometry">
            <mxPoint x="130" y="2010" as="sourcePoint" />
            <mxPoint x="180" y="1960" as="targetPoint" />
          </mxGeometry>
        </mxCell>
        <mxCell id="Bbd-Y3SnXmLpEQH7ZLkI-383" value="" style="endArrow=none;html=1;rounded=0;" edge="1" parent="1">
          <mxGeometry width="50" height="50" relative="1" as="geometry">
            <mxPoint x="580" y="760" as="sourcePoint" />
            <mxPoint x="670" y="760" as="targetPoint" />
          </mxGeometry>
        </mxCell>
        <mxCell id="Bbd-Y3SnXmLpEQH7ZLkI-384" value="" style="endArrow=none;html=1;rounded=0;" edge="1" parent="1">
          <mxGeometry width="50" height="50" relative="1" as="geometry">
            <mxPoint x="580" y="780" as="sourcePoint" />
            <mxPoint x="680" y="781" as="targetPoint" />
          </mxGeometry>
        </mxCell>
        <mxCell id="Bbd-Y3SnXmLpEQH7ZLkI-385" value="" style="endArrow=none;html=1;rounded=0;" edge="1" parent="1">
          <mxGeometry width="50" height="50" relative="1" as="geometry">
            <mxPoint x="580" y="799" as="sourcePoint" />
            <mxPoint x="690" y="799" as="targetPoint" />
          </mxGeometry>
        </mxCell>
        <mxCell id="Bbd-Y3SnXmLpEQH7ZLkI-386" value="" style="endArrow=none;html=1;rounded=0;" edge="1" parent="1">
          <mxGeometry width="50" height="50" relative="1" as="geometry">
            <mxPoint x="670" y="1420" as="sourcePoint" />
            <mxPoint x="670" y="100" as="targetPoint" />
          </mxGeometry>
        </mxCell>
        <mxCell id="Bbd-Y3SnXmLpEQH7ZLkI-387" value="" style="endArrow=none;html=1;rounded=0;" edge="1" parent="1">
          <mxGeometry width="50" height="50" relative="1" as="geometry">
            <mxPoint x="680" y="1460" as="sourcePoint" />
            <mxPoint x="680" y="140" as="targetPoint" />
          </mxGeometry>
        </mxCell>
        <mxCell id="Bbd-Y3SnXmLpEQH7ZLkI-388" value="" style="endArrow=none;html=1;rounded=0;" edge="1" parent="1">
          <mxGeometry width="50" height="50" relative="1" as="geometry">
            <mxPoint x="690" y="1490" as="sourcePoint" />
            <mxPoint x="690" y="180" as="targetPoint" />
          </mxGeometry>
        </mxCell>
        <mxCell id="Bbd-Y3SnXmLpEQH7ZLkI-392" value="" style="shape=xor;whiteSpace=wrap;html=1;" vertex="1" parent="1">
          <mxGeometry x="790" y="390" width="75" height="120" as="geometry" />
        </mxCell>
        <mxCell id="Bbd-Y3SnXmLpEQH7ZLkI-393" value="" style="shape=xor;whiteSpace=wrap;html=1;" vertex="1" parent="1">
          <mxGeometry x="790" y="540" width="75" height="120" as="geometry" />
        </mxCell>
        <mxCell id="Bbd-Y3SnXmLpEQH7ZLkI-394" value="" style="shape=xor;whiteSpace=wrap;html=1;" vertex="1" parent="1">
          <mxGeometry x="790" y="235" width="75" height="120" as="geometry" />
        </mxCell>
        <mxCell id="Bbd-Y3SnXmLpEQH7ZLkI-395" value="" style="shape=xor;whiteSpace=wrap;html=1;" vertex="1" parent="1">
          <mxGeometry x="790" y="940" width="75" height="120" as="geometry" />
        </mxCell>
        <mxCell id="Bbd-Y3SnXmLpEQH7ZLkI-396" value="" style="shape=xor;whiteSpace=wrap;html=1;" vertex="1" parent="1">
          <mxGeometry x="790" y="1245" width="75" height="120" as="geometry" />
        </mxCell>
        <mxCell id="Bbd-Y3SnXmLpEQH7ZLkI-397" value="" style="shape=xor;whiteSpace=wrap;html=1;" vertex="1" parent="1">
          <mxGeometry x="790" y="1395" width="75" height="120" as="geometry" />
        </mxCell>
        <mxCell id="Bbd-Y3SnXmLpEQH7ZLkI-398" value="" style="shape=xor;whiteSpace=wrap;html=1;" vertex="1" parent="1">
          <mxGeometry x="790" y="1090" width="75" height="120" as="geometry" />
        </mxCell>
        <mxCell id="Bbd-Y3SnXmLpEQH7ZLkI-402" value="" style="verticalLabelPosition=bottom;shadow=0;dashed=0;align=center;html=1;verticalAlign=top;shape=mxgraph.electrical.logic_gates.inverter_2" vertex="1" parent="1">
          <mxGeometry x="780" y="1450" width="20" height="20" as="geometry" />
        </mxCell>
        <mxCell id="Bbd-Y3SnXmLpEQH7ZLkI-403" value="" style="verticalLabelPosition=bottom;shadow=0;dashed=0;align=center;html=1;verticalAlign=top;shape=mxgraph.electrical.logic_gates.inverter_2" vertex="1" parent="1">
          <mxGeometry x="780" y="1265" width="20" height="20" as="geometry" />
        </mxCell>
        <mxCell id="Bbd-Y3SnXmLpEQH7ZLkI-404" value="" style="verticalLabelPosition=bottom;shadow=0;dashed=0;align=center;html=1;verticalAlign=top;shape=mxgraph.electrical.logic_gates.inverter_2" vertex="1" parent="1">
          <mxGeometry x="780" y="590" width="20" height="20" as="geometry" />
        </mxCell>
        <mxCell id="Bbd-Y3SnXmLpEQH7ZLkI-405" value="" style="verticalLabelPosition=bottom;shadow=0;dashed=0;align=center;html=1;verticalAlign=top;shape=mxgraph.electrical.logic_gates.inverter_2" vertex="1" parent="1">
          <mxGeometry x="780" y="1295" width="20" height="20" as="geometry" />
        </mxCell>
        <mxCell id="Bbd-Y3SnXmLpEQH7ZLkI-406" value="" style="verticalLabelPosition=bottom;shadow=0;dashed=0;align=center;html=1;verticalAlign=top;shape=mxgraph.electrical.logic_gates.inverter_2" vertex="1" parent="1">
          <mxGeometry x="780" y="960" width="20" height="20" as="geometry" />
        </mxCell>
        <mxCell id="Bbd-Y3SnXmLpEQH7ZLkI-407" value="" style="verticalLabelPosition=bottom;shadow=0;dashed=0;align=center;html=1;verticalAlign=top;shape=mxgraph.electrical.logic_gates.inverter_2" vertex="1" parent="1">
          <mxGeometry x="780" y="440" width="20" height="20" as="geometry" />
        </mxCell>
        <mxCell id="Bbd-Y3SnXmLpEQH7ZLkI-408" value="" style="verticalLabelPosition=bottom;shadow=0;dashed=0;align=center;html=1;verticalAlign=top;shape=mxgraph.electrical.logic_gates.inverter_2" vertex="1" parent="1">
          <mxGeometry x="780" y="1110" width="20" height="20" as="geometry" />
        </mxCell>
        <mxCell id="Bbd-Y3SnXmLpEQH7ZLkI-409" value="" style="verticalLabelPosition=bottom;shadow=0;dashed=0;align=center;html=1;verticalAlign=top;shape=mxgraph.electrical.logic_gates.inverter_2" vertex="1" parent="1">
          <mxGeometry x="780" y="620" width="20" height="20" as="geometry" />
        </mxCell>
        <mxCell id="Bbd-Y3SnXmLpEQH7ZLkI-417" value="" style="endArrow=none;html=1;rounded=0;" edge="1" parent="1" source="Bbd-Y3SnXmLpEQH7ZLkI-390">
          <mxGeometry width="50" height="50" relative="1" as="geometry">
            <mxPoint x="670" y="100" as="sourcePoint" />
            <mxPoint x="800" y="100" as="targetPoint" />
          </mxGeometry>
        </mxCell>
        <mxCell id="Bbd-Y3SnXmLpEQH7ZLkI-390" value="" style="shape=xor;whiteSpace=wrap;html=1;" vertex="1" parent="1">
          <mxGeometry x="790" y="85" width="75" height="120" as="geometry" />
        </mxCell>
        <mxCell id="Bbd-Y3SnXmLpEQH7ZLkI-419" value="" style="endArrow=none;html=1;rounded=0;entryX=0.096;entryY=0.119;entryDx=0;entryDy=0;entryPerimeter=0;" edge="1" parent="1" target="Bbd-Y3SnXmLpEQH7ZLkI-390">
          <mxGeometry width="50" height="50" relative="1" as="geometry">
            <mxPoint x="670" y="100" as="sourcePoint" />
            <mxPoint x="720" y="50" as="targetPoint" />
          </mxGeometry>
        </mxCell>
        <mxCell id="Bbd-Y3SnXmLpEQH7ZLkI-420" value="" style="endArrow=none;html=1;rounded=0;entryX=0.25;entryY=0.454;entryDx=0;entryDy=0;entryPerimeter=0;" edge="1" parent="1" target="Bbd-Y3SnXmLpEQH7ZLkI-390">
          <mxGeometry width="50" height="50" relative="1" as="geometry">
            <mxPoint x="680" y="140" as="sourcePoint" />
            <mxPoint x="730" y="95" as="targetPoint" />
          </mxGeometry>
        </mxCell>
        <mxCell id="Bbd-Y3SnXmLpEQH7ZLkI-421" value="" style="endArrow=none;html=1;rounded=0;entryX=0.161;entryY=0.779;entryDx=0;entryDy=0;entryPerimeter=0;" edge="1" parent="1" target="Bbd-Y3SnXmLpEQH7ZLkI-390">
          <mxGeometry width="50" height="50" relative="1" as="geometry">
            <mxPoint x="690" y="180" as="sourcePoint" />
            <mxPoint x="740" y="130" as="targetPoint" />
          </mxGeometry>
        </mxCell>
        <mxCell id="Bbd-Y3SnXmLpEQH7ZLkI-422" value="" style="endArrow=none;html=1;rounded=0;" edge="1" parent="1">
          <mxGeometry width="50" height="50" relative="1" as="geometry">
            <mxPoint x="690" y="335" as="sourcePoint" />
            <mxPoint x="770" y="335" as="targetPoint" />
          </mxGeometry>
        </mxCell>
        <mxCell id="Bbd-Y3SnXmLpEQH7ZLkI-423" value="" style="endArrow=none;html=1;rounded=0;entryX=0.137;entryY=0.839;entryDx=0;entryDy=0;entryPerimeter=0;" edge="1" parent="1" target="Bbd-Y3SnXmLpEQH7ZLkI-394">
          <mxGeometry width="50" height="50" relative="1" as="geometry">
            <mxPoint x="790" y="335" as="sourcePoint" />
            <mxPoint x="840" y="285" as="targetPoint" />
            <Array as="points">
              <mxPoint x="800" y="335" />
            </Array>
          </mxGeometry>
        </mxCell>
        <mxCell id="Bbd-Y3SnXmLpEQH7ZLkI-424" value="" style="endArrow=none;html=1;rounded=0;entryX=0.25;entryY=0.5;entryDx=0;entryDy=0;entryPerimeter=0;" edge="1" parent="1" target="Bbd-Y3SnXmLpEQH7ZLkI-394">
          <mxGeometry width="50" height="50" relative="1" as="geometry">
            <mxPoint x="680" y="294.47" as="sourcePoint" />
            <mxPoint x="807.0249999999999" y="294.78999999999996" as="targetPoint" />
          </mxGeometry>
        </mxCell>
        <mxCell id="Bbd-Y3SnXmLpEQH7ZLkI-425" value="" style="endArrow=none;html=1;rounded=0;entryX=0.163;entryY=0.209;entryDx=0;entryDy=0;entryPerimeter=0;" edge="1" parent="1" target="Bbd-Y3SnXmLpEQH7ZLkI-394">
          <mxGeometry width="50" height="50" relative="1" as="geometry">
            <mxPoint x="670" y="260" as="sourcePoint" />
            <mxPoint x="720" y="210" as="targetPoint" />
          </mxGeometry>
        </mxCell>
        <mxCell id="Bbd-Y3SnXmLpEQH7ZLkI-427" value="" style="endArrow=none;html=1;rounded=0;entryX=0.175;entryY=0.25;entryDx=0;entryDy=0;entryPerimeter=0;" edge="1" parent="1" target="Bbd-Y3SnXmLpEQH7ZLkI-392">
          <mxGeometry width="50" height="50" relative="1" as="geometry">
            <mxPoint x="670" y="420" as="sourcePoint" />
            <mxPoint x="740" y="375" as="targetPoint" />
          </mxGeometry>
        </mxCell>
        <mxCell id="Bbd-Y3SnXmLpEQH7ZLkI-428" value="" style="endArrow=none;html=1;rounded=0;entryX=0.175;entryY=0.25;entryDx=0;entryDy=0;entryPerimeter=0;" edge="1" parent="1" target="Bbd-Y3SnXmLpEQH7ZLkI-393">
          <mxGeometry width="50" height="50" relative="1" as="geometry">
            <mxPoint x="670" y="570" as="sourcePoint" />
            <mxPoint x="800" y="565" as="targetPoint" />
          </mxGeometry>
        </mxCell>
        <mxCell id="Bbd-Y3SnXmLpEQH7ZLkI-429" value="" style="endArrow=none;html=1;rounded=0;" edge="1" parent="1">
          <mxGeometry width="50" height="50" relative="1" as="geometry">
            <mxPoint x="680" y="450" as="sourcePoint" />
            <mxPoint x="780" y="450" as="targetPoint" />
          </mxGeometry>
        </mxCell>
        <mxCell id="Bbd-Y3SnXmLpEQH7ZLkI-430" value="" style="endArrow=none;html=1;rounded=0;" edge="1" parent="1">
          <mxGeometry width="50" height="50" relative="1" as="geometry">
            <mxPoint x="690" y="480" as="sourcePoint" />
            <mxPoint x="805" y="480" as="targetPoint" />
          </mxGeometry>
        </mxCell>
        <mxCell id="Bbd-Y3SnXmLpEQH7ZLkI-431" value="" style="endArrow=none;html=1;rounded=0;" edge="1" parent="1">
          <mxGeometry width="50" height="50" relative="1" as="geometry">
            <mxPoint x="680" y="600" as="sourcePoint" />
            <mxPoint x="780" y="600" as="targetPoint" />
          </mxGeometry>
        </mxCell>
        <mxCell id="Bbd-Y3SnXmLpEQH7ZLkI-432" value="" style="endArrow=none;html=1;rounded=0;" edge="1" parent="1">
          <mxGeometry width="50" height="50" relative="1" as="geometry">
            <mxPoint x="690" y="630" as="sourcePoint" />
            <mxPoint x="780" y="630" as="targetPoint" />
          </mxGeometry>
        </mxCell>
        <mxCell id="Bbd-Y3SnXmLpEQH7ZLkI-435" value="" style="verticalLabelPosition=bottom;shadow=0;dashed=0;align=center;html=1;verticalAlign=top;shape=mxgraph.electrical.logic_gates.inverter_2" vertex="1" parent="1">
          <mxGeometry x="780" y="1480" width="20" height="20" as="geometry" />
        </mxCell>
        <mxCell id="Bbd-Y3SnXmLpEQH7ZLkI-437" value="" style="endArrow=none;html=1;rounded=0;exitX=1;exitY=0.5;exitDx=0;exitDy=0;exitPerimeter=0;" edge="1" parent="1" source="Bbd-Y3SnXmLpEQH7ZLkI-404">
          <mxGeometry width="50" height="50" relative="1" as="geometry">
            <mxPoint x="800" y="605" as="sourcePoint" />
            <mxPoint x="810" y="600" as="targetPoint" />
          </mxGeometry>
        </mxCell>
        <mxCell id="Bbd-Y3SnXmLpEQH7ZLkI-439" value="" style="endArrow=none;html=1;rounded=0;entryX=0.25;entryY=0.5;entryDx=0;entryDy=0;entryPerimeter=0;exitX=1;exitY=0.5;exitDx=0;exitDy=0;exitPerimeter=0;" edge="1" parent="1" source="Bbd-Y3SnXmLpEQH7ZLkI-407" target="Bbd-Y3SnXmLpEQH7ZLkI-392">
          <mxGeometry width="50" height="50" relative="1" as="geometry">
            <mxPoint x="740" y="475" as="sourcePoint" />
            <mxPoint x="790" y="425" as="targetPoint" />
          </mxGeometry>
        </mxCell>
        <mxCell id="Bbd-Y3SnXmLpEQH7ZLkI-440" value="" style="endArrow=none;html=1;rounded=0;" edge="1" parent="1">
          <mxGeometry width="50" height="50" relative="1" as="geometry">
            <mxPoint x="670" y="970" as="sourcePoint" />
            <mxPoint x="780" y="970" as="targetPoint" />
          </mxGeometry>
        </mxCell>
        <mxCell id="Bbd-Y3SnXmLpEQH7ZLkI-441" value="" style="endArrow=none;html=1;rounded=0;entryX=0.25;entryY=0.5;entryDx=0;entryDy=0;entryPerimeter=0;" edge="1" parent="1" target="Bbd-Y3SnXmLpEQH7ZLkI-395">
          <mxGeometry width="50" height="50" relative="1" as="geometry">
            <mxPoint x="680" y="1000" as="sourcePoint" />
            <mxPoint x="805" y="1000" as="targetPoint" />
          </mxGeometry>
        </mxCell>
        <mxCell id="Bbd-Y3SnXmLpEQH7ZLkI-442" value="" style="endArrow=none;html=1;rounded=0;entryX=0.175;entryY=0.75;entryDx=0;entryDy=0;entryPerimeter=0;" edge="1" parent="1" target="Bbd-Y3SnXmLpEQH7ZLkI-395">
          <mxGeometry width="50" height="50" relative="1" as="geometry">
            <mxPoint x="690" y="1030" as="sourcePoint" />
            <mxPoint x="805" y="1030" as="targetPoint" />
          </mxGeometry>
        </mxCell>
        <mxCell id="Bbd-Y3SnXmLpEQH7ZLkI-443" value="" style="endArrow=none;html=1;rounded=0;entryX=0.186;entryY=0.25;entryDx=0;entryDy=0;entryPerimeter=0;exitX=1;exitY=0.5;exitDx=0;exitDy=0;exitPerimeter=0;" edge="1" parent="1" source="Bbd-Y3SnXmLpEQH7ZLkI-406" target="Bbd-Y3SnXmLpEQH7ZLkI-395">
          <mxGeometry width="50" height="50" relative="1" as="geometry">
            <mxPoint x="740" y="1010" as="sourcePoint" />
            <mxPoint x="790" y="960" as="targetPoint" />
          </mxGeometry>
        </mxCell>
        <mxCell id="Bbd-Y3SnXmLpEQH7ZLkI-444" value="" style="endArrow=none;html=1;rounded=0;entryX=0.188;entryY=0.75;entryDx=0;entryDy=0;entryPerimeter=0;exitX=1;exitY=0.5;exitDx=0;exitDy=0;exitPerimeter=0;" edge="1" parent="1" source="Bbd-Y3SnXmLpEQH7ZLkI-409" target="Bbd-Y3SnXmLpEQH7ZLkI-393">
          <mxGeometry width="50" height="50" relative="1" as="geometry">
            <mxPoint x="770" y="620" as="sourcePoint" />
            <mxPoint x="820" y="570" as="targetPoint" />
          </mxGeometry>
        </mxCell>
        <mxCell id="Bbd-Y3SnXmLpEQH7ZLkI-445" value="" style="endArrow=none;html=1;rounded=0;" edge="1" parent="1">
          <mxGeometry width="50" height="50" relative="1" as="geometry">
            <mxPoint x="670" y="1120" as="sourcePoint" />
            <mxPoint x="780" y="1120" as="targetPoint" />
          </mxGeometry>
        </mxCell>
        <mxCell id="Bbd-Y3SnXmLpEQH7ZLkI-446" value="" style="endArrow=none;html=1;rounded=0;entryX=0.25;entryY=0.5;entryDx=0;entryDy=0;entryPerimeter=0;" edge="1" parent="1" target="Bbd-Y3SnXmLpEQH7ZLkI-398">
          <mxGeometry width="50" height="50" relative="1" as="geometry">
            <mxPoint x="680" y="1150" as="sourcePoint" />
            <mxPoint x="805" y="1150" as="targetPoint" />
          </mxGeometry>
        </mxCell>
        <mxCell id="Bbd-Y3SnXmLpEQH7ZLkI-447" value="" style="endArrow=none;html=1;rounded=0;" edge="1" parent="1">
          <mxGeometry width="50" height="50" relative="1" as="geometry">
            <mxPoint x="690" y="1180" as="sourcePoint" />
            <mxPoint x="780" y="1180" as="targetPoint" />
          </mxGeometry>
        </mxCell>
        <mxCell id="Bbd-Y3SnXmLpEQH7ZLkI-448" value="" style="endArrow=none;html=1;rounded=0;exitX=1;exitY=0.5;exitDx=0;exitDy=0;exitPerimeter=0;" edge="1" parent="1" source="Bbd-Y3SnXmLpEQH7ZLkI-408">
          <mxGeometry width="50" height="50" relative="1" as="geometry">
            <mxPoint x="790" y="1170" as="sourcePoint" />
            <mxPoint x="804" y="1120" as="targetPoint" />
          </mxGeometry>
        </mxCell>
        <mxCell id="Bbd-Y3SnXmLpEQH7ZLkI-449" value="" style="endArrow=none;html=1;rounded=0;exitX=1;exitY=0.5;exitDx=0;exitDy=0;exitPerimeter=0;" edge="1" parent="1" source="Bbd-Y3SnXmLpEQH7ZLkI-77">
          <mxGeometry width="50" height="50" relative="1" as="geometry">
            <mxPoint x="800" y="1210" as="sourcePoint" />
            <mxPoint x="804" y="1180" as="targetPoint" />
          </mxGeometry>
        </mxCell>
        <mxCell id="Bbd-Y3SnXmLpEQH7ZLkI-450" value="" style="endArrow=none;html=1;rounded=0;" edge="1" parent="1">
          <mxGeometry width="50" height="50" relative="1" as="geometry">
            <mxPoint x="670" y="1275" as="sourcePoint" />
            <mxPoint x="780" y="1275" as="targetPoint" />
          </mxGeometry>
        </mxCell>
        <mxCell id="Bbd-Y3SnXmLpEQH7ZLkI-451" value="" style="endArrow=none;html=1;rounded=0;entryX=0;entryY=0.5;entryDx=0;entryDy=0;entryPerimeter=0;" edge="1" parent="1" target="Bbd-Y3SnXmLpEQH7ZLkI-405">
          <mxGeometry width="50" height="50" relative="1" as="geometry">
            <mxPoint x="680" y="1305" as="sourcePoint" />
            <mxPoint x="780" y="1300" as="targetPoint" />
          </mxGeometry>
        </mxCell>
        <mxCell id="Bbd-Y3SnXmLpEQH7ZLkI-452" value="" style="endArrow=none;html=1;rounded=0;entryX=0.165;entryY=0.79;entryDx=0;entryDy=0;entryPerimeter=0;" edge="1" parent="1" target="Bbd-Y3SnXmLpEQH7ZLkI-396">
          <mxGeometry width="50" height="50" relative="1" as="geometry">
            <mxPoint x="690" y="1340" as="sourcePoint" />
            <mxPoint x="800" y="1340" as="targetPoint" />
          </mxGeometry>
        </mxCell>
        <mxCell id="Bbd-Y3SnXmLpEQH7ZLkI-453" value="" style="endArrow=none;html=1;rounded=0;entryX=0.25;entryY=0.5;entryDx=0;entryDy=0;entryPerimeter=0;exitX=1;exitY=0.5;exitDx=0;exitDy=0;exitPerimeter=0;" edge="1" parent="1" source="Bbd-Y3SnXmLpEQH7ZLkI-405" target="Bbd-Y3SnXmLpEQH7ZLkI-396">
          <mxGeometry width="50" height="50" relative="1" as="geometry">
            <mxPoint x="780" y="1360" as="sourcePoint" />
            <mxPoint x="830" y="1310" as="targetPoint" />
          </mxGeometry>
        </mxCell>
        <mxCell id="Bbd-Y3SnXmLpEQH7ZLkI-454" value="" style="endArrow=none;html=1;rounded=0;" edge="1" parent="1">
          <mxGeometry width="50" height="50" relative="1" as="geometry">
            <mxPoint x="690" y="1490" as="sourcePoint" />
            <mxPoint x="780" y="1490" as="targetPoint" />
          </mxGeometry>
        </mxCell>
        <mxCell id="Bbd-Y3SnXmLpEQH7ZLkI-455" value="" style="endArrow=none;html=1;rounded=0;" edge="1" parent="1">
          <mxGeometry width="50" height="50" relative="1" as="geometry">
            <mxPoint x="680" y="1459.85" as="sourcePoint" />
            <mxPoint x="780" y="1459.85" as="targetPoint" />
          </mxGeometry>
        </mxCell>
        <mxCell id="Bbd-Y3SnXmLpEQH7ZLkI-456" value="" style="endArrow=none;html=1;rounded=0;entryX=0;entryY=0.5;entryDx=0;entryDy=0;entryPerimeter=0;" edge="1" parent="1" target="Bbd-Y3SnXmLpEQH7ZLkI-78">
          <mxGeometry width="50" height="50" relative="1" as="geometry">
            <mxPoint x="670" y="1420" as="sourcePoint" />
            <mxPoint x="770" y="1440" as="targetPoint" />
          </mxGeometry>
        </mxCell>
        <mxCell id="Bbd-Y3SnXmLpEQH7ZLkI-457" value="" style="endArrow=none;html=1;rounded=0;entryX=0.248;entryY=0.54;entryDx=0;entryDy=0;entryPerimeter=0;exitX=1;exitY=0.5;exitDx=0;exitDy=0;exitPerimeter=0;" edge="1" parent="1" source="Bbd-Y3SnXmLpEQH7ZLkI-402" target="Bbd-Y3SnXmLpEQH7ZLkI-397">
          <mxGeometry width="50" height="50" relative="1" as="geometry">
            <mxPoint x="790" y="1490" as="sourcePoint" />
            <mxPoint x="840" y="1440" as="targetPoint" />
          </mxGeometry>
        </mxCell>
        <mxCell id="Bbd-Y3SnXmLpEQH7ZLkI-459" value="" style="endArrow=none;html=1;rounded=0;" edge="1" parent="1">
          <mxGeometry width="50" height="50" relative="1" as="geometry">
            <mxPoint x="800" y="1490" as="sourcePoint" />
            <mxPoint x="802" y="1490" as="targetPoint" />
          </mxGeometry>
        </mxCell>
        <mxCell id="Bbd-Y3SnXmLpEQH7ZLkI-460" value="" style="endArrow=none;html=1;rounded=0;entryX=0.166;entryY=0.208;entryDx=0;entryDy=0;entryPerimeter=0;" edge="1" parent="1" target="Bbd-Y3SnXmLpEQH7ZLkI-397">
          <mxGeometry width="50" height="50" relative="1" as="geometry">
            <mxPoint x="800" y="1420" as="sourcePoint" />
            <mxPoint x="840" y="1390" as="targetPoint" />
          </mxGeometry>
        </mxCell>
        <mxCell id="Bbd-Y3SnXmLpEQH7ZLkI-462" value="slct[2]" style="text;html=1;align=center;verticalAlign=middle;resizable=0;points=[];autosize=1;strokeColor=none;fillColor=none;" vertex="1" parent="1">
          <mxGeometry x="590" y="740" width="50" height="30" as="geometry" />
        </mxCell>
        <mxCell id="Bbd-Y3SnXmLpEQH7ZLkI-463" value="slct[1]" style="text;html=1;align=center;verticalAlign=middle;resizable=0;points=[];autosize=1;strokeColor=none;fillColor=none;" vertex="1" parent="1">
          <mxGeometry x="590" y="760" width="50" height="30" as="geometry" />
        </mxCell>
        <mxCell id="Bbd-Y3SnXmLpEQH7ZLkI-464" value="slct[0]" style="text;html=1;align=center;verticalAlign=middle;resizable=0;points=[];autosize=1;strokeColor=none;fillColor=none;" vertex="1" parent="1">
          <mxGeometry x="590" y="780" width="50" height="30" as="geometry" />
        </mxCell>
        <mxCell id="Bbd-Y3SnXmLpEQH7ZLkI-472" value="" style="shape=offPageConnector;whiteSpace=wrap;html=1;direction=south;" vertex="1" parent="1">
          <mxGeometry x="490" y="1885" width="40" height="30" as="geometry" />
        </mxCell>
        <mxCell id="Bbd-Y3SnXmLpEQH7ZLkI-473" value="" style="shape=offPageConnector;whiteSpace=wrap;html=1;direction=south;" vertex="1" parent="1">
          <mxGeometry x="490" y="1545" width="40" height="30" as="geometry" />
        </mxCell>
        <mxCell id="Bbd-Y3SnXmLpEQH7ZLkI-474" value="" style="shape=offPageConnector;whiteSpace=wrap;html=1;direction=south;" vertex="1" parent="1">
          <mxGeometry x="490" y="-215" width="40" height="30" as="geometry" />
        </mxCell>
        <mxCell id="Bbd-Y3SnXmLpEQH7ZLkI-475" value="" style="shape=offPageConnector;whiteSpace=wrap;html=1;direction=south;" vertex="1" parent="1">
          <mxGeometry x="490" y="190" width="40" height="30" as="geometry" />
        </mxCell>
        <mxCell id="Bbd-Y3SnXmLpEQH7ZLkI-476" value="" style="shape=offPageConnector;whiteSpace=wrap;html=1;direction=south;" vertex="1" parent="1">
          <mxGeometry x="490" y="565" width="40" height="30" as="geometry" />
        </mxCell>
        <mxCell id="Bbd-Y3SnXmLpEQH7ZLkI-477" value="" style="shape=offPageConnector;whiteSpace=wrap;html=1;direction=south;" vertex="1" parent="1">
          <mxGeometry x="490" y="1195" width="40" height="30" as="geometry" />
        </mxCell>
        <mxCell id="Bbd-Y3SnXmLpEQH7ZLkI-478" value="" style="shape=offPageConnector;whiteSpace=wrap;html=1;direction=south;" vertex="1" parent="1">
          <mxGeometry x="490" y="865" width="40" height="30" as="geometry" />
        </mxCell>
        <mxCell id="Bbd-Y3SnXmLpEQH7ZLkI-486" value="A" style="text;html=1;align=center;verticalAlign=middle;resizable=0;points=[];autosize=1;strokeColor=none;fillColor=none;" vertex="1" parent="1">
          <mxGeometry x="500" y="-240" width="30" height="30" as="geometry" />
        </mxCell>
        <mxCell id="Bbd-Y3SnXmLpEQH7ZLkI-487" value="B" style="text;html=1;align=center;verticalAlign=middle;resizable=0;points=[];autosize=1;strokeColor=none;fillColor=none;" vertex="1" parent="1">
          <mxGeometry x="500" y="165" width="30" height="30" as="geometry" />
        </mxCell>
        <mxCell id="Bbd-Y3SnXmLpEQH7ZLkI-488" value="C" style="text;html=1;align=center;verticalAlign=middle;resizable=0;points=[];autosize=1;strokeColor=none;fillColor=none;" vertex="1" parent="1">
          <mxGeometry x="500" y="540" width="30" height="30" as="geometry" />
        </mxCell>
        <mxCell id="Bbd-Y3SnXmLpEQH7ZLkI-489" value="D" style="text;html=1;align=center;verticalAlign=middle;resizable=0;points=[];autosize=1;strokeColor=none;fillColor=none;" vertex="1" parent="1">
          <mxGeometry x="500" y="840" width="30" height="30" as="geometry" />
        </mxCell>
        <mxCell id="Bbd-Y3SnXmLpEQH7ZLkI-490" value="E" style="text;html=1;align=center;verticalAlign=middle;resizable=0;points=[];autosize=1;strokeColor=none;fillColor=none;" vertex="1" parent="1">
          <mxGeometry x="500" y="1170" width="30" height="30" as="geometry" />
        </mxCell>
        <mxCell id="Bbd-Y3SnXmLpEQH7ZLkI-491" value="F" style="text;html=1;align=center;verticalAlign=middle;resizable=0;points=[];autosize=1;strokeColor=none;fillColor=none;" vertex="1" parent="1">
          <mxGeometry x="500" y="1520" width="30" height="30" as="geometry" />
        </mxCell>
        <mxCell id="Bbd-Y3SnXmLpEQH7ZLkI-492" value="G" style="text;html=1;align=center;verticalAlign=middle;resizable=0;points=[];autosize=1;strokeColor=none;fillColor=none;" vertex="1" parent="1">
          <mxGeometry x="500" y="1860" width="30" height="30" as="geometry" />
        </mxCell>
      </root>
    </mxGraphModel>
  </diagram>
</mxfile>
